<?xml version="1.0" encoding="UTF-8"?>
<svg version="1.1" xmlns="http://www.w3.org/2000/svg" width="500" height="500">
<path d="M0 0 C8.60793042 4.98353866 13.66762454 10.66580631 16.39770508 20.27783203 C18.6970164 30.68177474 15.33575705 40.77488032 12.625 50.75 C12.22405505 52.26726011 11.82430874 53.78483749 11.42578125 55.30273438 C9.02901789 64.38255381 6.4816324 73.41592135 3.875 82.4375 C12.455 82.4375 21.035 82.4375 29.875 82.4375 C31.4215516 85.5306032 30.37542724 87.95212494 29.73046875 91.30859375 C29.60062088 91.98672623 29.47077301 92.6648587 29.33699036 93.36354065 C29.06023194 94.79907082 28.78008368 96.23395096 28.49682617 97.66821289 C28.06526049 99.86097411 27.64812634 102.05613659 27.23242188 104.25195312 C26.96180502 105.64600202 26.69034812 107.03988816 26.41796875 108.43359375 C26.17071045 109.70388428 25.92345215 110.9741748 25.66870117 112.28295898 C24.875 115.4375 24.875 115.4375 22.875 118.4375 C19.80224609 118.77807617 19.80224609 118.77807617 15.8984375 118.73046875 C15.21319 118.72622391 14.5279425 118.72197906 13.82192993 118.71760559 C11.63088871 118.70079753 9.44076368 118.66314405 7.25 118.625 C5.76563827 118.60995579 4.28126215 118.59626693 2.796875 118.58398438 C-0.84404833 118.5508879 -4.48443478 118.49909207 -8.125 118.4375 C-8.22151855 118.99115234 -8.31803711 119.54480469 -8.41748047 120.11523438 C-9.73531801 127.19521281 -11.63178595 134.05237658 -13.66653442 140.9569397 C-14.26270557 142.98062875 -14.85229783 145.00615623 -15.44116211 147.03198242 C-17.38121043 153.67908122 -19.38075328 160.30099822 -21.49609375 166.89453125 C-22.04982666 168.63283203 -22.04982666 168.63283203 -22.61474609 170.40625 C-23.30912479 172.57061292 -24.01570885 174.73111384 -24.73681641 176.88671875 C-26.72369098 183.08210873 -28.02884322 188.90819837 -27.125 195.4375 C-24.88670651 199.33378867 -22.2133038 201.58802923 -18.125 203.4375 C-15.04134129 203.6877157 -15.04134129 203.6877157 -12.125 203.4375 C-9.28532769 203.4375 -6.88764289 203.84017181 -4.125 204.4375 C-3.795 203.7775 -3.465 203.1175 -3.125 202.4375 C-0.8109378 201.70674352 1.52328869 201.03611742 3.875 200.4375 C4.2325377 209.19717363 3.95632115 219.57842705 -0.125 227.4375 C-0.22040611 228.8950933 -0.30333213 230.35354686 -0.375 231.8125 C-0.8671875 234.18359375 -0.8671875 234.18359375 -2.125 236.4375 C-14.91738035 244.81810375 -29.59070025 245.3803954 -44.125 242.4375 C-54.99468108 239.24383082 -64.18193825 232.91584329 -69.875 223 C-70.64651301 221.48996632 -71.39782561 219.9693784 -72.125 218.4375 C-72.434375 217.81230469 -72.74375 217.18710937 -73.0625 216.54296875 C-78.76639721 203.51724196 -75.10039766 191.26258229 -71.125 178.4375 C-70.9330304 177.81639343 -70.74106079 177.19528687 -70.54327393 176.55535889 C-68.55569318 170.12741751 -66.55939796 163.70230466 -64.51635742 157.29174805 C-64.30067612 156.61265884 -64.08499481 155.93356964 -63.86277771 155.23390198 C-63.26971831 153.36895389 -62.67353211 151.50500097 -62.07714844 149.64111328 C-61.26327297 146.90273537 -60.66599241 144.2374519 -60.125 141.4375 C-59.601549 139.51930644 -59.05713432 137.60675668 -58.49609375 135.69921875 C-58.18349609 134.63251953 -57.87089844 133.56582031 -57.54882812 132.46679688 C-57.22333984 131.36400391 -56.89785156 130.26121094 -56.5625 129.125 C-56.23314453 128.00287109 -55.90378906 126.88074219 -55.56445312 125.72460938 C-54.75320801 122.96167312 -53.93999302 120.19933259 -53.125 117.4375 C-53.67317383 117.60048584 -54.22134766 117.76347168 -54.78613281 117.93139648 C-57.43941423 118.50553556 -59.83242678 118.55023652 -62.546875 118.53515625 C-64.08408203 118.53032227 -64.08408203 118.53032227 -65.65234375 118.52539062 C-66.71582031 118.51701172 -67.77929688 118.50863281 -68.875 118.5 C-69.95394531 118.49548828 -71.03289062 118.49097656 -72.14453125 118.48632812 C-74.80474383 118.47455727 -77.46484365 118.45811399 -80.125 118.4375 C-81.4173755 114.56037349 -80.65710102 112.41371563 -79.76171875 108.43359375 C-79.60967484 107.75450455 -79.45763092 107.07541534 -79.30097961 106.37574768 C-78.9777497 104.94175172 -78.65051668 103.50865306 -78.31958008 102.07641602 C-77.81414838 99.88215619 -77.32518304 97.68467861 -76.83789062 95.48632812 C-76.52181497 94.09352687 -76.20478959 92.70094073 -75.88671875 91.30859375 C-75.59756592 90.03943115 -75.30841309 88.77026855 -75.01049805 87.46264648 C-74.125 84.4375 -74.125 84.4375 -72.125 82.4375 C-69.05224609 82.21044922 -69.05224609 82.21044922 -65.1484375 82.2421875 C-64.46319 82.2450174 -63.7779425 82.24784729 -63.07192993 82.25076294 C-60.88110973 82.26196719 -58.69069684 82.28707141 -56.5 82.3125 C-55.0156309 82.32252952 -53.5312554 82.33165542 -52.046875 82.33984375 C-48.40611739 82.36190706 -44.76559844 82.39643824 -41.125 82.4375 C-41.0110791 81.75582764 -40.8971582 81.07415527 -40.77978516 80.37182617 C-39.68246724 74.04614323 -38.2836163 67.91488307 -36.5 61.75 C-36.27054688 60.94111328 -36.04109375 60.13222656 -35.8046875 59.29882812 C-35.24939578 57.34373854 -34.68788681 55.39041644 -34.125 53.4375 C-37.01103837 54.07570418 -39.51422072 54.9861275 -42.1796875 56.2578125 C-42.953125 56.62527588 -43.7265625 56.99273926 -44.5234375 57.37133789 C-45.34070313 57.76442139 -46.15796875 58.15750488 -47 58.5625 C-47.84046875 58.96267334 -48.6809375 59.36284668 -49.546875 59.77514648 C-53.51396458 61.67164742 -57.46416191 63.59504711 -61.3828125 65.58984375 C-62.01977051 65.91388184 -62.65672852 66.23791992 -63.31298828 66.57177734 C-65.02466105 67.44860029 -66.73125053 68.33532604 -68.4375 69.22265625 C-71.125 70.4375 -71.125 70.4375 -74.125 70.4375 C-73.73863426 59.37944613 -72.89467663 48.43117205 -71.625 37.4375 C-71.49440186 36.29812988 -71.36380371 35.15875977 -71.22924805 33.98486328 C-70.2583255 25.83747651 -70.2583255 25.83747651 -69.125 22.4375 C-67.52124023 21.39770508 -67.52124023 21.39770508 -65.43359375 20.45703125 C-64.66136475 20.10141113 -63.88913574 19.74579102 -63.09350586 19.37939453 C-62.25827393 19.00669434 -61.42304199 18.63399414 -60.5625 18.25 C-58.82209827 17.45360898 -57.08252742 16.65539994 -55.34375 15.85546875 C-54.4671875 15.45376465 -53.590625 15.05206055 -52.6875 14.63818359 C-49.611356 13.19682725 -46.59313921 11.65944687 -43.57495117 10.10131836 C-37.97769627 7.21204023 -32.54294512 4.65793579 -26.4140625 3.08984375 C-23.85819012 2.36146374 -21.54967049 1.33472101 -19.125 0.25 C-12.66541784 -2.37230686 -6.46248118 -2.91568975 0 0 Z " fill="#1954B4" transform="translate(278.125,128.5625)"/>
<path d="M0 0 C1.00013174 4.14241416 1.11516542 8.01480304 1.09765625 12.26953125 C1.09553383 13.29103523 1.09553383 13.29103523 1.09336853 14.33317566 C1.08780298 16.49299647 1.07525703 18.65271089 1.0625 20.8125 C1.05748054 22.28320162 1.05291841 23.75390488 1.04882812 25.22460938 C1.03784488 28.8164404 1.02060422 32.4082098 1 36 C0.67 36 0.34 36 0 36 C0.0309375 36.99580078 0.0309375 36.99580078 0.0625 38.01171875 C-0.10154952 45.0350888 -0.10154952 45.0350888 -2.42578125 47.53125 C-4.55915497 48.83865915 -6.74590476 49.91377458 -9 51 C-10.83876972 52.09508952 -12.67168373 53.20004562 -14.5 54.3125 C-19.73693165 57.35646652 -25.08294414 60.07230296 -30.51586914 62.73974609 C-36.07507809 65.48968668 -41.51337591 68.43086357 -46.9375 71.4375 C-53.47910691 75.060709 -60.02825409 78.66540638 -66.625 82.1875 C-67.34163818 82.57413818 -68.05827637 82.96077637 -68.79663086 83.35913086 C-73.76599518 86 -73.76599518 86 -76 86 C-76.33 86.66 -76.66 87.32 -77 88 C-78.64142963 89.0409066 -80.30712215 90.04504326 -82 91 C-75.99457862 94.61865135 -69.9938138 98.06017758 -63.6875 101.125 C-56.30445307 104.75560724 -49.18436624 108.80175582 -42.03857422 112.87597656 C-35.1709321 116.78723028 -28.26127971 120.60993129 -21.3125 124.375 C-13.79281545 128.45208934 -6.3387399 132.60294909 1 137 C0.35900731 140.90674761 -0.82417741 144.23201012 -2.3984375 147.859375 C-2.87796875 148.97570312 -3.3575 150.09203125 -3.8515625 151.2421875 C-4.35429687 152.39976562 -4.85703125 153.55734375 -5.375 154.75 C-8.55763688 162.09327155 -11.6096658 169.35743486 -14 177 C-17.54115328 175.6546156 -20.81429912 174.08818019 -24.125 172.25 C-25.09824219 171.71246094 -26.07148438 171.17492187 -27.07421875 170.62109375 C-28.03972656 170.08613281 -29.00523437 169.55117188 -30 169 C-31.64513775 168.10288991 -33.29097805 167.20706704 -34.9375 166.3125 C-48.80108934 158.74874684 -62.63124659 151.123699 -76.42431641 143.43212891 C-79.36666671 141.79612636 -82.31431276 140.16984438 -85.26171875 138.54296875 C-124.48810484 116.82831029 -124.48810484 116.82831029 -129.52734375 99.5078125 C-131.48931067 89.09803758 -130.14111571 79.43727915 -124.38671875 70.4921875 C-119.58269885 64.03711863 -114.48116913 59.23050485 -107 56 C-106.34 56 -105.68 56 -105 56 C-104.67 55.34 -104.34 54.68 -104 54 C-102.21801498 53.02533933 -100.39795394 52.11979473 -98.5625 51.25 C-94.67233395 49.35748679 -90.92055977 47.41362841 -87.25 45.125 C-82.96819197 42.49110199 -78.56586828 40.22283657 -74.0625 38 C-65.90631835 33.97396186 -57.9365276 29.70610631 -50.06713867 25.140625 C-43.83210157 21.5316429 -37.51409661 18.19390078 -31.05224609 15.00927734 C-26.30487956 12.6661071 -21.60712192 10.24452879 -16.9375 7.75 C-16.04526733 7.27433594 -16.04526733 7.27433594 -15.13500977 6.7890625 C-12.77322008 5.52180942 -10.41969309 4.25040055 -8.11767578 2.87695312 C-3.29283831 0 -3.29283831 0 0 0 Z " fill="#164996" transform="translate(192,161)"/>
<path d="M0 0 C4.16889098 1.28732704 7.87837306 2.86169258 11.7109375 4.94140625 C12.7824707 5.52035645 13.85400391 6.09930664 14.95800781 6.69580078 C16.64941895 7.61981689 16.64941895 7.61981689 18.375 8.5625 C19.55551269 9.20324121 20.73617796 9.84370138 21.91699219 10.48388672 C28.67308939 14.15327891 35.40179176 17.86914922 42.08569336 21.66845703 C47.66252216 24.83338922 53.29918217 27.88379206 58.9375 30.9375 C67.19909092 35.41837495 75.33729057 40.06758498 83.41015625 44.87890625 C86.32215446 46.61182248 89.26828237 48.26418703 92.25 49.875 C100.64589888 54.55547236 107.55552711 62.22440498 110.55859375 71.5546875 C112.53656536 82.51230016 111.52046022 92.23193179 106 102 C105.58492188 102.78761719 105.16984375 103.57523437 104.7421875 104.38671875 C99.78155112 112.15296096 91.32446527 115.65870504 83.39208984 119.75146484 C79.71578798 121.6702858 76.1127184 123.71481735 72.5 125.75 C63.73804685 130.64181852 54.89181933 135.37675249 46.03320312 140.09082031 C39.40377107 143.63513722 39.40377107 143.63513722 32.9765625 147.52734375 C27.85203857 150.8066938 22.41312113 153.48450742 17 156.25 C8.89654692 160.42236834 0.85139848 164.65658553 -7.05273438 169.19628906 C-17.1624244 175 -17.1624244 175 -20 175 C-20.33 159.49 -20.66 143.98 -21 128 C-9.5625 121.8125 -9.5625 121.8125 -6.01391602 119.89379883 C-1.48205984 117.44052947 3.04658818 114.98345457 7.546875 112.47265625 C11.91381649 110.03700862 16.31374362 107.66463347 20.71582031 105.29321289 C29.02122451 100.81900705 37.28113498 96.31951294 45.38671875 91.4921875 C49.33767279 89.23618684 53.41101128 87.24565854 57.50390625 85.26171875 C60.1484492 83.98748032 60.1484492 83.98748032 63 82 C60.37749361 80.43318934 57.75212842 78.87152823 55.125 77.3125 C54.39796875 76.87744141 53.6709375 76.44238281 52.921875 75.99414062 C48.2290003 73.21546481 43.46319497 70.70888975 38.57080078 68.30151367 C34.08142396 66.02868672 29.7342404 63.51102444 25.375 61 C24.48554688 60.49210937 23.59609375 59.98421875 22.6796875 59.4609375 C18.62257558 57.13406449 14.6014317 54.77361397 10.6484375 52.2734375 C7.9145357 50.54639996 5.17853698 49.00618943 2.25 47.625 C-3.6844076 44.73174521 -9.33218962 41.37926151 -15 38 C-13.20622385 31.02944881 -10.58007531 24.74827844 -7.48828125 18.2578125 C-5.70598632 14.35641099 -4.24960179 10.39467189 -2.859375 6.33984375 C-2.04690177 4.12770072 -1.09700539 2.08334795 0 0 Z " fill="#153B7C" transform="translate(327,170)"/>
<path d="M0 0 C1.98 0.66 3.96 1.32 6 2 C5.34 2.99 4.68 3.98 4 5 C3.87559631 7.15312473 3.87559631 7.15312473 4.0703125 9.51171875 C4.18324891 15.39613204 2.72249193 20.27050357 0.875 25.8125 C0.2274444 27.84059673 -0.41835121 29.86925615 -1.0625 31.8984375 C-1.38863281 32.91518555 -1.71476562 33.93193359 -2.05078125 34.97949219 C-3.77566398 40.4682394 -5.30611871 46.01128402 -6.85644531 51.55126953 C-8.19364749 56.29118982 -9.63312117 60.97382014 -11.19702148 65.64355469 C-14.3672408 75.12904502 -14.3672408 75.12904502 -14 85 C-11.76170651 88.89628867 -9.0883038 91.15052923 -5 93 C-1.91634129 93.2502157 -1.91634129 93.2502157 1 93 C3.83967231 93 6.23735711 93.40267181 9 94 C9.33 93.34 9.66 92.68 10 92 C12.3140622 91.26924352 14.64828869 90.59861742 17 90 C17.3575377 98.75967363 17.08132115 109.14092705 13 117 C12.90459389 118.4575933 12.82166787 119.91604686 12.75 121.375 C12.2578125 123.74609375 12.2578125 123.74609375 11 126 C-1.79238035 134.38060375 -16.46570025 134.9428954 -31 132 C-41.86968108 128.80633082 -51.05693825 122.47834329 -56.75 112.5625 C-57.52151301 111.05246632 -58.27282561 109.5318784 -59 108 C-59.309375 107.37480469 -59.61875 106.74960937 -59.9375 106.10546875 C-65.64139721 93.07974196 -61.97539766 80.82508229 -58 68 C-57.8080304 67.37889343 -57.61606079 66.75778687 -57.41827393 66.11785889 C-55.43069318 59.68991751 -53.43439796 53.26480466 -51.39135742 46.85424805 C-51.17567612 46.17515884 -50.95999481 45.49606964 -50.73777771 44.79640198 C-50.14471831 42.93145389 -49.54853211 41.06750097 -48.95214844 39.20361328 C-48.13860689 36.46635888 -47.53170753 33.80084592 -47 31 C-46.11071956 27.62559261 -45.1141794 24.28382154 -44.125 20.9375 C-43.86847656 20.03966797 -43.61195313 19.14183594 -43.34765625 18.21679688 C-43.09113281 17.34990234 -42.83460938 16.48300781 -42.5703125 15.58984375 C-42.34102051 14.80472412 -42.11172852 14.01960449 -41.87548828 13.21069336 C-40.84202464 10.6010968 -40.05051352 8.94657926 -38 7 C-34.90551758 6.54589844 -34.90551758 6.54589844 -31.14453125 6.609375 C-30.48289474 6.61503479 -29.82125824 6.62069458 -29.13957214 6.62652588 C-27.02980668 6.64888753 -24.92175048 6.69907629 -22.8125 6.75 C-21.38088394 6.7700656 -19.9492412 6.78831628 -18.51757812 6.8046875 C-15.01116485 6.84874931 -11.50574928 6.91777223 -8 7 C-8 6.34 -8 5.68 -8 5 C-4.535 4.505 -4.535 4.505 -1 4 C-0.67 2.68 -0.34 1.36 0 0 Z " fill="#144DB1" transform="translate(265,239)"/>
<path d="M0 0 C0.88494141 0.46535156 1.76988281 0.93070312 2.68164062 1.41015625 C8.81105117 4.74845487 13.63520503 7.84311509 15.9375 14.75 C16.06531786 17.42394964 15.98141871 20.07095857 15.9375 22.75 C10.60764655 25.75621162 5.27397964 28.75556673 -0.0625 31.75 C-1.10470703 32.33515381 -1.10470703 32.33515381 -2.16796875 32.93212891 C-13.05105035 39.03442823 -24.01403709 44.97906946 -35.02880859 50.84057617 C-41.65849344 54.38499972 -41.65849344 54.38499972 -48.0859375 58.27734375 C-53.21046143 61.5566938 -58.64937887 64.23450742 -64.0625 67 C-72.16595308 71.17236834 -80.21110152 75.40658553 -88.11523438 79.94628906 C-98.2249244 85.75 -98.2249244 85.75 -101.0625 85.75 C-101.3925 70.24 -101.7225 54.73 -102.0625 38.75 C-90.625 32.5625 -90.625 32.5625 -87.07641602 30.64379883 C-82.54455984 28.19052947 -78.01591182 25.73345457 -73.515625 23.22265625 C-69.14868351 20.78700862 -64.74875638 18.41463347 -60.34667969 16.04321289 C-52.03912749 11.5678499 -43.78171895 7.06010121 -35.66796875 2.2421875 C-30.9158953 -0.4793898 -26.02004858 -2.92592425 -21.0625 -5.25 C-20.24652344 -5.67667969 -19.43054688 -6.10335937 -18.58984375 -6.54296875 C-12.30944877 -8.29992623 -5.38967 -2.94125371 0 0 Z " fill="#0C1636" transform="translate(408.0625,259.25)"/>
<path d="M0 0 C1.00013174 4.14241416 1.11516542 8.01480304 1.09765625 12.26953125 C1.0962413 12.95053391 1.09482635 13.63153656 1.09336853 14.33317566 C1.08780298 16.49299647 1.07525703 18.65271089 1.0625 20.8125 C1.05748054 22.28320162 1.05291841 23.75390488 1.04882812 25.22460938 C1.03784488 28.8164404 1.02060422 32.4082098 1 36 C0.67 36 0.34 36 0 36 C0.020625 36.66386719 0.04125 37.32773438 0.0625 38.01171875 C-0.10154952 45.0350888 -0.10154952 45.0350888 -2.42578125 47.53125 C-4.55915497 48.83865915 -6.74590476 49.91377458 -9 51 C-10.83876972 52.09508952 -12.67168373 53.20004562 -14.5 54.3125 C-19.73693165 57.35646652 -25.08294414 60.07230296 -30.51586914 62.73974609 C-36.07507809 65.48968668 -41.51337591 68.43086357 -46.9375 71.4375 C-53.47910691 75.060709 -60.02825409 78.66540638 -66.625 82.1875 C-67.34163818 82.57413818 -68.05827637 82.96077637 -68.79663086 83.35913086 C-73.76599518 86 -73.76599518 86 -76 86 C-76.33 86.66 -76.66 87.32 -77 88 C-79.31847874 88.7166207 -81.65319703 89.38242027 -84 90 C-84.99 90.495 -84.99 90.495 -86 91 C-88.40992487 89.88842216 -90.6858137 88.72469896 -93 87.4375 C-93.67337402 87.06761963 -94.34674805 86.69773926 -95.04052734 86.31665039 C-96.39879401 85.56683142 -97.7547822 84.81286946 -99.10839844 84.0546875 C-100.74219932 83.14374018 -102.38947642 82.25704089 -104.0390625 81.375 C-109.55265392 78.31004283 -112.9122874 75.55788267 -116 70 C-116 68.68 -116 67.36 -116 66 C-115.34 66 -114.68 66 -114 66 C-114.33 64.68 -114.66 63.36 -115 62 C-114.01 62 -113.02 62 -112 62 C-111.67 61.34 -111.34 60.68 -111 60 C-110.34 60 -109.68 60 -109 60 C-109 59.01 -109 58.02 -109 57 C-108.360625 56.87625 -107.72125 56.7525 -107.0625 56.625 C-106.381875 56.41875 -105.70125 56.2125 -105 56 C-104.67 55.34 -104.34 54.68 -104 54 C-102.21801498 53.02533933 -100.39795394 52.11979473 -98.5625 51.25 C-94.67233395 49.35748679 -90.92055977 47.41362841 -87.25 45.125 C-82.96819197 42.49110199 -78.56586828 40.22283657 -74.0625 38 C-65.90631835 33.97396186 -57.9365276 29.70610631 -50.06713867 25.140625 C-43.83210157 21.5316429 -37.51409661 18.19390078 -31.05224609 15.00927734 C-26.30487956 12.6661071 -21.60712192 10.24452879 -16.9375 7.75 C-16.04526733 7.27433594 -16.04526733 7.27433594 -15.13500977 6.7890625 C-12.77322008 5.52180942 -10.41969309 4.25040055 -8.11767578 2.87695312 C-3.29283831 0 -3.29283831 0 0 0 Z " fill="#0A1436" transform="translate(192,161)"/>
<path d="M0 0 C8.70656748 5.04064433 13.62140821 10.74787938 16.453125 20.41015625 C18.52776971 30.37997665 15.55500135 39.90195947 12.875 49.4375 C10.875 47.4375 10.875 47.4375 10.8125 43.625 C10.84150391 42.55765625 10.84150391 42.55765625 10.87109375 41.46875 C10.87578893 39.02725563 10.41767696 36.8117117 9.875 34.4375 C9.875 33.4475 9.875 32.4575 9.875 31.4375 C9.18792969 31.86675781 8.50085938 32.29601562 7.79296875 32.73828125 C4.65894546 34.56331489 1.47846855 36.10080005 -1.8125 37.625 C-2.45026367 37.92108154 -3.08802734 38.21716309 -3.74511719 38.5222168 C-9.86869489 41.35080357 -16.03757535 44.07823879 -22.22143555 46.7722168 C-22.94758057 47.09101807 -23.67372559 47.40981934 -24.421875 47.73828125 C-25.06479492 48.01841064 -25.70771484 48.29854004 -26.37011719 48.5871582 C-28.39535945 49.51925819 -28.39535945 49.51925819 -31.125 51.4375 C-31.86106499 55.00519552 -31.86106499 55.00519552 -32.125 58.4375 C-32.785 58.4375 -33.445 58.4375 -34.125 58.4375 C-34.455 59.4275 -34.785 60.4175 -35.125 61.4375 C-34.795 58.7975 -34.465 56.1575 -34.125 53.4375 C-37.01103837 54.07570418 -39.51422072 54.9861275 -42.1796875 56.2578125 C-42.953125 56.62527588 -43.7265625 56.99273926 -44.5234375 57.37133789 C-45.74933594 57.96096313 -45.74933594 57.96096313 -47 58.5625 C-47.84046875 58.96267334 -48.6809375 59.36284668 -49.546875 59.77514648 C-53.51396458 61.67164742 -57.46416191 63.59504711 -61.3828125 65.58984375 C-62.01977051 65.91388184 -62.65672852 66.23791992 -63.31298828 66.57177734 C-65.02466105 67.44860029 -66.73125053 68.33532604 -68.4375 69.22265625 C-71.125 70.4375 -71.125 70.4375 -74.125 70.4375 C-73.73863426 59.37944613 -72.89467663 48.43117205 -71.625 37.4375 C-71.49440186 36.29812988 -71.36380371 35.15875977 -71.22924805 33.98486328 C-70.2583255 25.83747651 -70.2583255 25.83747651 -69.125 22.4375 C-67.52124023 21.39770508 -67.52124023 21.39770508 -65.43359375 20.45703125 C-64.66136475 20.10141113 -63.88913574 19.74579102 -63.09350586 19.37939453 C-62.25827393 19.00669434 -61.42304199 18.63399414 -60.5625 18.25 C-58.82209827 17.45360898 -57.08252742 16.65539994 -55.34375 15.85546875 C-54.4671875 15.45376465 -53.590625 15.05206055 -52.6875 14.63818359 C-49.611356 13.19682725 -46.59313921 11.65944687 -43.57495117 10.10131836 C-37.97769627 7.21204023 -32.54294512 4.65793579 -26.4140625 3.08984375 C-23.85819012 2.36146374 -21.54967049 1.33472101 -19.125 0.25 C-12.66541784 -2.37230686 -6.46248118 -2.91568975 0 0 Z " fill="#32B0DE" transform="translate(278.125,128.5625)"/>
<path d="M0 0 C0.66 0.99 1.32 1.98 2 3 C1.67 3.66 1.34 4.32 1 5 C1.144375 5.78375 1.28875 6.5675 1.4375 7.375 C3.00810143 17.49665365 1.57785353 26.21769046 -1.375 35.9375 C-1.69210937 37.03384766 -2.00921875 38.13019531 -2.3359375 39.25976562 C-3.7106609 43.95960124 -5.17799101 48.44497753 -7 53 C-21.19 53 -35.38 53 -50 53 C-48 37 -48 37 -46 31 C-45.34 31 -44.68 31 -44 31 C-44 30.01 -44 29.02 -44 28 C-43.34 28 -42.68 28 -42 28 C-42 25.36 -42 22.72 -42 20 C-41.11441406 19.5875 -40.22882813 19.175 -39.31640625 18.75 C-38.06507945 18.1667197 -36.81377961 17.58338154 -35.5625 17 C-34.89814941 16.6903833 -34.23379883 16.3807666 -33.54931641 16.06176758 C-29.82667682 14.32508394 -26.10787863 12.580691 -22.39453125 10.82421875 C-21.64034912 10.46779297 -20.88616699 10.11136719 -20.10913086 9.74414062 C-18.64711649 9.05267541 -17.18566711 8.36001404 -15.72485352 7.66601562 C-12.18593565 5.993088 -8.6368516 4.45083704 -5 3 C-3.3170608 2.02763513 -1.64556566 1.03435556 0 0 Z " fill="#0E4C99" transform="translate(288,159)"/>
<path d="M0 0 C-0.66 1.65 -1.32 3.3 -2 5 C-2.99 5 -3.98 5 -5 5 C-5 5.99 -5 6.98 -5 8 C-5.66 8 -6.32 8 -7 8 C-6.608125 9.051875 -6.21625 10.10375 -5.8125 11.1875 C-5.59207031 11.77917969 -5.37164062 12.37085938 -5.14453125 12.98046875 C-1.25503054 19.84351267 5.57501534 22.76486732 12.3125 26.3125 C13.33923828 26.86228516 14.36597656 27.41207031 15.42382812 27.97851562 C17.94505952 29.32708126 20.47039052 30.66723608 23 32 C23.99 31.34 24.98 30.68 26 30 C26.66 30.66 27.32 31.32 28 32 C27.67 32.33 27.34 32.66 27 33 C30.96 35.31 34.92 37.62 39 40 C38.34 41.32 37.68 42.64 37 44 C36.01 43.505 36.01 43.505 35 43 C34.505 43.99 34.505 43.99 34 45 C32.68 45 31.36 45 30 45 C30 44.01 30 43.02 30 42 C30.66 41.67 31.32 41.34 32 41 C30.91256712 38.88077873 30.91256712 38.88077873 29 37 C26.08365871 36.7497843 26.08365871 36.7497843 23 37 C19.49365892 36.5107431 18.01618621 36.01079081 15 34 C14.731875 33.34 14.46375 32.68 14.1875 32 C13.09929752 29.73872428 13.09929752 29.73872428 10.3125 28.75 C6.77039428 27.9480138 3.62006622 27.85519735 0 28 C0.33 26.02 0.66 24.04 1 22 C-2.78398632 20.91886105 -6.26001014 20.98549039 -10.1875 21.0625 C-13 21 -13 21 -14 20 C-16.80986867 24.56603659 -17.27318722 27.84553052 -17.0078125 33.046875 C-17 35 -17 35 -18 37 C-16.02 37 -14.04 37 -12 37 C-12.66 38.32 -13.32 39.64 -14 41 C-14.66 40.67 -15.32 40.34 -16 40 C-16.33 40.66 -16.66 41.32 -17 42 C-15.68 42.33 -14.36 42.66 -13 43 C-13.04125 43.721875 -13.0825 44.44375 -13.125 45.1875 C-12.99078695 48.20729369 -12.24829381 50.26935729 -11 53 C-9.02 53 -7.04 53 -5 53 C-4.82984375 53.56589844 -4.6596875 54.13179688 -4.484375 54.71484375 C-4.12085938 55.81505859 -4.12085938 55.81505859 -3.75 56.9375 C-3.51796875 57.66839844 -3.2859375 58.39929688 -3.046875 59.15234375 C-2.1492447 61.20570556 -2.1492447 61.20570556 0.109375 61.75390625 C0.73328125 61.83511719 1.3571875 61.91632813 2 62 C2 62.66 2 63.32 2 64 C-0.0625 64.8125 -0.0625 64.8125 -3 65 C-11.89174528 60.22480346 -17.26822621 51.34557409 -20.33984375 41.91796875 C-22.47351262 32.48689986 -21.4447824 23.57673555 -17 15 C-13.5498958 9.63688403 -7.14916795 0 0 0 Z " fill="#2358AA" transform="translate(83,219)"/>
<path d="M0 0 C0.66 0 1.32 0 2 0 C2.2475 0.9075 2.495 1.815 2.75 2.75 C4.05377867 6.13982455 5.4413433 7.52663186 8 10 C8 10.99 8 11.98 8 13 C8.66 13 9.32 13 10 13 C10.66 14.98 11.32 16.96 12 19 C12.66 19 13.32 19 14 19 C14 19.66 14 20.32 14 21 C14.66 21 15.32 21 16 21 C16.33 21.66 16.66 22.32 17 23 C18.98 22.67 20.96 22.34 23 22 C23 22.66 23 23.32 23 24 C23.66 24.33 24.32 24.66 25 25 C25 25.66 25 26.32 25 27 C30.79963575 28.9963372 35.95658296 29.27362652 42.0625 29.1875 C42.93455078 29.18685547 43.80660156 29.18621094 44.70507812 29.18554688 C49.24338292 29.15462731 53.53557916 28.91634254 58 28 C58 26.35 58 24.7 58 23 C60.24195113 21.63881539 61.47826762 20.93861972 64.125 21.25 C66 22 66 22 68 24 C68.99 23.505 68.99 23.505 70 23 C70 23.99 70 24.98 70 26 C54.85168062 33.12598456 41.42626134 35.94482936 24.96875 31.109375 C14.18489928 27.01670876 6.44117278 20.29274741 0.9453125 10.2109375 C-0.67460927 6.42219484 -1.31867465 3.95602394 0 0 Z M6 6 C9 7 9 7 9 7 Z " fill="#589DCE" transform="translate(206,339)"/>
<path d="M0 0 C0.99435406 3.09354597 0.87840996 4.90279155 0 8 C-0.9446814 8.029729 -0.9446814 8.029729 -1.90844727 8.06005859 C-4.7935136 8.15598897 -7.6779223 8.2653897 -10.5625 8.375 C-12.0484668 8.42140625 -12.0484668 8.42140625 -13.56445312 8.46875 C-21.48720207 8.74900462 -21.48720207 8.74900462 -29 11 C-30.48572484 13.08782609 -30.48572484 13.08782609 -31 16 C-31.16387207 16.66918457 -31.32774414 17.33836914 -31.49658203 18.02783203 C-32.05447044 20.36610774 -32.56335631 22.71102079 -33.0625 25.0625 C-33.40715241 26.65763849 -33.7521913 28.25269354 -34.09765625 29.84765625 C-34.24726807 30.54898682 -34.39687988 31.25031738 -34.55102539 31.97290039 C-34.99823663 33.99203849 -35.48925287 35.99608351 -36 38 C-35.071875 37.814375 -34.14375 37.62875 -33.1875 37.4375 C-30 37 -30 37 -27 38 C-27 38.66 -27 39.32 -27 40 C-22.05 40 -17.1 40 -12 40 C-12.33 41.32 -12.66 42.64 -13 44 C-13 43.01 -13 42.02 -13 41 C-13.54817383 41.16298584 -14.09634766 41.32597168 -14.66113281 41.49389648 C-17.31441423 42.06803556 -19.70742678 42.11273652 -22.421875 42.09765625 C-23.44667969 42.09443359 -24.47148437 42.09121094 -25.52734375 42.08789062 C-26.59082031 42.07951172 -27.65429688 42.07113281 -28.75 42.0625 C-29.82894531 42.05798828 -30.90789062 42.05347656 -32.01953125 42.04882812 C-34.67974383 42.03705727 -37.33984365 42.02061399 -40 42 C-41.2923755 38.12287349 -40.53210102 35.97621563 -39.63671875 31.99609375 C-39.48467484 31.31700455 -39.33263092 30.63791534 -39.17597961 29.93824768 C-38.8527497 28.50425172 -38.52551668 27.07115306 -38.19458008 25.63891602 C-37.68914838 23.44465619 -37.20018304 21.24717861 -36.71289062 19.04882812 C-36.39681497 17.65602687 -36.07978959 16.26344073 -35.76171875 14.87109375 C-35.47256592 13.60193115 -35.18341309 12.33276855 -34.88549805 11.02514648 C-34 8 -34 8 -32 6 C-28.92724609 5.77294922 -28.92724609 5.77294922 -25.0234375 5.8046875 C-24.33819 5.8075174 -23.6529425 5.81034729 -22.94692993 5.81326294 C-20.75610973 5.82446719 -18.56569684 5.84957141 -16.375 5.875 C-14.8906309 5.88502952 -13.4062554 5.89415542 -11.921875 5.90234375 C-8.28111739 5.92440706 -4.64059844 5.95893824 -1 6 C-0.67 4.02 -0.34 2.04 0 0 Z " fill="#66A4D3" transform="translate(238,205)"/>
<path d="M0 0 C4.66546504 2.67005229 10.87370331 6.36324854 12.59765625 11.65625 C12.68917969 12.2440625 12.78070313 12.831875 12.875 13.4375 C11.555 13.4375 10.235 13.4375 8.875 13.4375 C8.38 11.9525 8.38 11.9525 7.875 10.4375 C6.25080018 8.14631764 6.25080018 8.14631764 3.875 6.4375 C0.79152174 6.27068891 0.79152174 6.27068891 -2.125 6.4375 C-2.785 5.7775 -3.445 5.1175 -4.125 4.4375 C-4.785 4.4375 -5.445 4.4375 -6.125 4.4375 C-6.125 3.4475 -6.125 2.4575 -6.125 1.4375 C-9.06591587 1.62165432 -9.06591587 1.62165432 -12.125 2.4375 C-13.56137698 4.38913118 -13.56137698 4.38913118 -14.125 6.4375 C-14.125 5.7775 -14.125 5.1175 -14.125 4.4375 C-15.135625 4.72625 -16.14625 5.015 -17.1875 5.3125 C-23.16666667 7.02083333 -29.14583333 8.72916667 -35.125 10.4375 C-35.125 11.0975 -35.125 11.7575 -35.125 12.4375 C-36.01703125 12.57027344 -36.9090625 12.70304688 -37.828125 12.83984375 C-38.99859375 13.01644531 -40.1690625 13.19304687 -41.375 13.375 C-42.53515625 13.54902344 -43.6953125 13.72304687 -44.890625 13.90234375 C-48.55868495 14.47085317 -48.55868495 14.47085317 -52.125 15.4375 C-52.455 16.0975 -52.785 16.7575 -53.125 17.4375 C-55.1875 18.5625 -55.1875 18.5625 -57.125 19.4375 C-57.785 18.7775 -58.445 18.1175 -59.125 17.4375 C-55.17268817 15.48754227 -51.21215002 13.55487869 -47.25 11.625 C-46.14140625 11.07779297 -45.0328125 10.53058594 -43.890625 9.96679688 C-38.07485721 7.14443897 -32.44009235 4.7346435 -26.20263672 3.02612305 C-23.72599395 2.3244561 -21.45565717 1.33625272 -19.125 0.25 C-12.66541784 -2.37230686 -6.46248118 -2.91568975 0 0 Z " fill="#4FD0D7" transform="translate(278.125,128.5625)"/>
<path d="M0 0 C8.91 0 17.82 0 27 0 C26.18856936 4.50369524 25.37297031 9.00620221 24.54638672 13.50708008 C24.26652762 15.03819798 23.98916389 16.56977418 23.71435547 18.10180664 C23.31874426 20.30480407 22.91416617 22.50599333 22.5078125 24.70703125 C22.32643234 25.73374687 22.32643234 25.73374687 22.14138794 26.78120422 C21.51644706 30.11723861 20.91468568 32.12797148 19 35 C15.92724609 35.2487793 15.92724609 35.2487793 12.0234375 35.07421875 C10.99556625 35.03455742 10.99556625 35.03455742 9.94692993 34.99409485 C7.7554101 34.90622738 5.56552901 34.7971224 3.375 34.6875 C1.89068397 34.62425157 0.40630836 34.56238515 -1.078125 34.50195312 C-4.71957803 34.35067376 -8.35985716 34.1803333 -12 34 C-12 33.34 -12 32.68 -12 32 C-9.33821779 30.6691089 -7.31260604 30.88731007 -4.3359375 30.90234375 C-3.21445312 30.90556641 -2.09296875 30.90878906 -0.9375 30.91210938 C0.238125 30.92048828 1.41375 30.92886719 2.625 30.9375 C3.80835938 30.94201172 4.99171875 30.94652344 6.2109375 30.95117188 C9.14067507 30.96298533 12.07031272 30.97945742 15 31 C14.97164063 29.89527344 14.94328125 28.79054687 14.9140625 27.65234375 C15.00392081 23.83336573 15.29602702 22.59997402 18 20 C18.66 20 19.32 20 20 20 C20.09087891 19.03900391 20.09087891 19.03900391 20.18359375 18.05859375 C20.57410187 14.02734839 20.9694743 10.00715938 21.5625 6 C22.0481023 3.17544454 22.0481023 3.17544454 22 1 C21.16597656 1.08378906 20.33195312 1.16757813 19.47265625 1.25390625 C12.76204941 1.8611662 6.66283545 2.01636473 0 1 C0 0.67 0 0.34 0 0 Z " fill="#25366A" transform="translate(282,212)"/>
<path d="M0 0 C0.33 0 0.66 0 1 0 C1.19430855 2.6246601 1.38073238 5.24946765 1.5625 7.875 C1.61857422 8.62136719 1.67464844 9.36773437 1.73242188 10.13671875 C2.11328125 15.7734375 2.11328125 15.7734375 1 18 C2.98 18 4.96 18 7 18 C6.34 19.32 5.68 20.64 5 22 C4.34 21.67 3.68 21.34 3 21 C2.67 21.66 2.34 22.32 2 23 C3.32 23.33 4.64 23.66 6 24 C5.95875 24.721875 5.9175 25.44375 5.875 26.1875 C6.00921305 29.20729369 6.75170619 31.26935729 8 34 C9.98 34 11.96 34 14 34 C14.17015625 34.56589844 14.3403125 35.13179688 14.515625 35.71484375 C14.87914062 36.81505859 14.87914062 36.81505859 15.25 37.9375 C15.48203125 38.66839844 15.7140625 39.39929688 15.953125 40.15234375 C16.8507553 42.20570556 16.8507553 42.20570556 19.109375 42.75390625 C19.73328125 42.83511719 20.3571875 42.91632813 21 43 C21 43.66 21 44.32 21 45 C18.9375 45.8125 18.9375 45.8125 16 46 C7.09857337 41.21960422 1.76512394 32.35209175 -1.34765625 22.93359375 C-3.05857873 15.23956511 -2.748475 7.38652655 0 0 Z " fill="#2B66B1" transform="translate(64,238)"/>
<path d="M0 0 C-0.66 1.65 -1.32 3.3 -2 5 C-2.99 5 -3.98 5 -5 5 C-5 5.99 -5 6.98 -5 8 C-5.66 8 -6.32 8 -7 8 C-6.77183594 8.60328125 -6.54367188 9.2065625 -6.30859375 9.828125 C-6.02113281 10.62734375 -5.73367187 11.4265625 -5.4375 12.25 C-5.14746094 13.03890625 -4.85742188 13.8278125 -4.55859375 14.640625 C-3.95477163 17.19103452 -4.1526068 18.55322229 -5 21 C-11.15234375 21.09765625 -11.15234375 21.09765625 -13 21 C-13.33 20.67 -13.66 20.34 -14 20 C-14.99 21.98 -15.98 23.96 -17 26 C-17.33 26 -17.66 26 -18 26 C-18.64169244 19.26222939 -17.88571058 15.61275008 -13.859375 10.1484375 C-5.07636364 0 -5.07636364 0 0 0 Z " fill="#1755AF" transform="translate(83,219)"/>
<path d="M0 0 C0.99 0.99 1.98 1.98 3 3 C2.360625 3.556875 1.72125 4.11375 1.0625 4.6875 C-1.263232 7.29513891 -1.58455019 8.59331152 -2 12 C-2.56038383 16.48307067 -4.14715567 18.54200687 -7 22 C-9.02745429 25.86181769 -8.96346418 27.82498855 -8 32 C-8.31478446 33.33783393 -8.64587656 34.67203709 -9 36 C-8.67 36.99 -8.34 37.98 -8 39 C-13.75 37.125 -13.75 37.125 -16 36 C-14.20669186 29.03126751 -11.58789906 22.74922478 -8.484375 16.265625 C-6.6854815 12.3080593 -5.28339706 8.28109676 -3.95703125 4.14453125 C-3 2 -3 2 0 0 Z " fill="#2A344F" transform="translate(328,172)"/>
<path d="M0 0 C0.66 0.33 1.32 0.66 2 1 C1.34 2.65 0.68 4.3 0 6 C-0.66 6 -1.32 6 -2 6 C-1.90460938 6.85722656 -1.80921875 7.71445313 -1.7109375 8.59765625 C-1.60007813 9.74105469 -1.48921875 10.88445312 -1.375 12.0625 C-1.25898438 13.18785156 -1.14296875 14.31320313 -1.0234375 15.47265625 C-0.99746037 19.38221499 -1.89065264 22.2599146 -3 26 C-3.501153 29.30104296 -3.81661813 32.61354785 -4.125 35.9375 C-4.21136719 36.81212891 -4.29773438 37.68675781 -4.38671875 38.58789062 C-4.59689697 40.72470254 -4.79925518 42.86228122 -5 45 C-3.60394531 44.50886719 -3.60394531 44.50886719 -2.1796875 44.0078125 C0.79240294 43.06579858 2.91983656 42.81881392 6 43 C6 42.34 6 41.68 6 41 C6.66 41 7.32 41 8 41 C8 40.01 8 39.02 8 38 C12.1196377 36.70756464 15.66831683 35.73747375 20 36 C17.95431143 38.21073933 16.08070522 39.64395281 13.3828125 40.97265625 C12.34833984 41.48602539 12.34833984 41.48602539 11.29296875 42.00976562 C10.57753906 42.35716797 9.86210937 42.70457031 9.125 43.0625 C8.41730469 43.41376953 7.70960938 43.76503906 6.98046875 44.12695312 C-2.91301394 49 -2.91301394 49 -7 49 C-6.61363426 37.94194613 -5.76967663 26.99367205 -4.5 16 C-4.36940186 14.86062988 -4.23880371 13.72125977 -4.10424805 12.54736328 C-3.1333255 4.39997651 -3.1333255 4.39997651 -2 1 C-1.34 0.67 -0.68 0.34 0 0 Z " fill="#8FC2DF" transform="translate(211,150)"/>
<path d="M0 0 C1.98 0.66 3.96 1.32 6 2 C5.34 2.99 4.68 3.98 4 5 C4 6.175625 4 7.35125 4 8.5625 C4 9.696875 4 10.83125 4 12 C3.34 12.66 2.68 13.32 2 14 C1.34 14 0.68 14 0 14 C0 12.02 0 10.04 0 8 C-1.14597656 8.165 -2.29195313 8.33 -3.47265625 8.5 C-7.82023427 9.04332768 -12.06350537 9.07316536 -16.4375 9 C-27.45612791 8.34977262 -27.45612791 8.34977262 -37.0625 12.5625 C-38.0215625 13.7690625 -38.0215625 13.7690625 -39 15 C-39 12.36926272 -38.66733713 10.50251425 -38 8 C-38 7.67 -38 7.34 -38 7 C-28.1 7 -18.2 7 -8 7 C-8 6.34 -8 5.68 -8 5 C-4.535 4.505 -4.535 4.505 -1 4 C-0.67 2.68 -0.34 1.36 0 0 Z " fill="#042375" transform="translate(265,239)"/>
<path d="M0 0 C2.64 0.33 5.28 0.66 8 1 C8 1.66 8 2.32 8 3 C10.64 2.67 13.28 2.34 16 2 C16 2.66 16 3.32 16 4 C15.34 4 14.68 4 14 4 C14 4.66 14 5.32 14 6 C14.7425 6.28875 15.485 6.5775 16.25 6.875 C17.1575 7.24625 18.065 7.6175 19 8 C19.721875 8.2475 20.44375 8.495 21.1875 8.75 C23.88804973 10.61244809 24.19626408 12.91901232 25 16 C28.77545388 14.90931332 31.47043472 14.0916909 34 11 C34.495 11.99 34.495 11.99 35 13 C33.70703125 15.53125 33.70703125 15.53125 31.8125 18.5 C31.20019531 19.4796875 30.58789062 20.459375 29.95703125 21.46875 C28.04913513 23.93644798 26.87667089 24.92842415 24 26 C23.86722656 25.31292969 23.73445313 24.62585938 23.59765625 23.91796875 C23.42105469 23.01691406 23.24445313 22.11585938 23.0625 21.1875 C22.88847656 20.29417969 22.71445312 19.40085937 22.53515625 18.48046875 C22.02258847 15.88602829 22.02258847 15.88602829 21 13 C20.01 12.67 19.02 12.34 18 12 C18 11.34 18 10.68 18 10 C17.31550781 9.74476563 16.63101562 9.48953125 15.92578125 9.2265625 C12.55038274 7.81150892 9.40025962 6.12741434 6.1875 4.375 C5.59001953 4.05015625 4.99253906 3.7253125 4.37695312 3.390625 C2.91662865 2.59620849 1.45812509 1.79844624 0 1 C0 0.67 0 0.34 0 0 Z " fill="#204B92" transform="translate(400,255)"/>
<path d="M0 0 C2.9213771 0.44944263 4.34749684 1.24710886 6.8125 3 C10.38581506 5.24208004 12.83881555 5.6217105 17 6 C18.66934283 6.31966139 20.3373217 6.64731066 22 7 C22.33 6.34 22.66 5.68 23 5 C24.28571429 12.42857143 24.28571429 12.42857143 23 16 C14.46452595 12.75498194 6.66310501 7.91595416 -1 3 C-0.67 2.01 -0.34 1.02 0 0 Z " fill="#394667" transform="translate(155,322)"/>
<path d="M0 0 C5.59695705 1.86565235 8.20412751 7.99019279 11.12109375 12.87890625 C14.50638668 20.11922174 14.18290011 30.9482272 11.98046875 38.4921875 C11.65691406 39.31976563 11.33335937 40.14734375 11 41 C9 39 9 39 8.8125 35.1875 C8.90527812 30.00879419 9.4346141 24.87116609 9.9765625 19.72265625 C9.98429687 18.82417969 9.99203125 17.92570312 10 17 C9.34 16.34 8.68 15.68 8 15 C7.01 15 6.02 15 5 15 C5 14.34 5 13.68 5 13 C4.01 12.67 3.02 12.34 2 12 C2.66 11.34 3.32 10.68 4 10 C4.18490007 7.67642489 4.18490007 7.67642489 2 5 C1.01 4.67 0.02 4.34 -1 4 C-0.67 3.34 -0.34 2.68 0 2 C0 1.34 0 0.68 0 0 Z " fill="#5981B3" transform="translate(425,225)"/>
<path d="M0 0 C1.00013174 4.14241416 1.11516542 8.01480304 1.09765625 12.26953125 C1.0962413 12.95053391 1.09482635 13.63153656 1.09336853 14.33317566 C1.08780298 16.49299647 1.07525703 18.65271089 1.0625 20.8125 C1.05748054 22.28320162 1.05291841 23.75390488 1.04882812 25.22460938 C1.03784488 28.8164404 1.02060422 32.4082098 1 36 C0.67 36 0.34 36 0 36 C-0.33 39.3 -0.66 42.6 -1 46 C-1.33 46 -1.66 46 -2 46 C-2 32.47 -2 18.94 -2 5 C-2.99 5 -3.98 5 -5 5 C-5.33 5.66 -5.66 6.32 -6 7 C-6.66 6.34 -7.32 5.68 -8 5 C-8.66 4.67 -9.32 4.34 -10 4 C-3.375 0 -3.375 0 0 0 Z " fill="#A6ABB6" transform="translate(192,161)"/>
<path d="M0 0 C0.99 0.33 1.98 0.66 3 1 C1.54956352 3.55998697 0.04399293 5.8738365 -2 8 C-5.4375 8.8125 -5.4375 8.8125 -9 9 C-11.01416562 9.62256028 -13.02015519 10.27566653 -15 11 C-15.103125 11.86625 -15.20625 12.7325 -15.3125 13.625 C-16.03398414 17.16683123 -17.27123261 19.84312042 -19 23 C-19.66 22.67 -20.32 22.34 -21 22 C-21 19.36 -21 16.72 -21 14 C-20.34 14 -19.68 14 -19 14 C-18.896875 13.236875 -18.79375 12.47375 -18.6875 11.6875 C-17.91988882 8.6868381 -17.55988914 7.70659276 -15 6 C-11.96031735 5.41339458 -9.0964022 5 -6 5 C-5.67 4.34 -5.34 3.68 -5 3 C-2.625 1.3125 -2.625 1.3125 0 0 Z " fill="#359ECC" transform="translate(230,142)"/>
<path d="M0 0 C1.32 0 2.64 0 4 0 C3.34 1.65 2.68 3.3 2 5 C2.99 5.33 3.98 5.66 5 6 C4.45026573 11.83028038 2.7546141 16.58290168 0.4375 21.9375 C0.10814453 22.71673828 -0.22121094 23.49597656 -0.56054688 24.29882812 C-1.36633349 26.20235303 -2.18214217 28.10163025 -3 30 C-3.99 30 -4.98 30 -6 30 C-6 29.34 -6 28.68 -6 28 C-6.66 27.67 -7.32 27.34 -8 27 C-7.01 26.67 -6.02 26.34 -5 26 C-5.12375 24.948125 -5.12375 24.948125 -5.25 23.875 C-4.91899366 20.0684271 -3.14261045 18.11652429 -1 15 C0.1181258 11.73163228 -0.04549758 9.17581787 -0.5 5.8125 C-1 2 -1 2 0 0 Z " fill="#3C4661" transform="translate(185,297)"/>
<path d="M0 0 C0.33 0 0.66 0 1 0 C3.20630072 9.72537359 1.92000254 19.3314158 0 29 C-2 27 -2 27 -2.0625 23.1875 C-2.04316406 22.4759375 -2.02382813 21.764375 -2.00390625 21.03125 C-1.99921107 18.58975563 -2.45732304 16.3742117 -3 14 C-3 13.01 -3 12.02 -3 11 C-3.763125 11.495 -4.52625 11.99 -5.3125 12.5 C-8 14 -8 14 -11 14 C-10.54109375 13.57589844 -10.0821875 13.15179688 -9.609375 12.71484375 C-5.47640381 8.76420952 -2.59838877 5.09284198 0 0 Z " fill="#178ED2" transform="translate(291,149)"/>
<path d="M0 0 C8.91 0 17.82 0 27 0 C25.02 10.56 23.04 21.12 21 32 C20.67 32 20.34 32 20 32 C19.34 29.36 18.68 26.72 18 24 C18.66 24 19.32 24 20 24 C20.33 23.34 20.66 22.68 21 22 C20.34 22 19.68 22 19 22 C19.13277344 21.21496094 19.26554687 20.42992187 19.40234375 19.62109375 C21.21267808 10.3643858 21.21267808 10.3643858 22 1 C21.16597656 1.08378906 20.33195312 1.16757813 19.47265625 1.25390625 C12.76204941 1.8611662 6.66283545 2.01636473 0 1 C0 0.67 0 0.34 0 0 Z " fill="#353F6C" transform="translate(282,212)"/>
<path d="M0 0 C0.33 0 0.66 0 1 0 C1.02578125 0.59167969 1.0515625 1.18335938 1.078125 1.79296875 C1.45540582 7.04917657 2.01058732 10.23222136 6 14 C9.7746237 16.88063387 12.3015648 17.30641969 17 17 C20 17 20 17 23 19 C15.75756018 21.06926852 9.07997815 22.53998908 2 19 C2 18.01 2 17.02 2 16 C1.34 16 0.68 16 0 16 C-1.06795656 10.42289352 -0.82622671 5.60563042 0 0 Z " fill="#1B5DCB" transform="translate(249,315)"/>
<path d="M0 0 C5.41390868 0.46671627 9.20517932 1.24297811 14 4 C14 4.66 14 5.32 14 6 C14.99 6 15.98 6 17 6 C17.33 5.34 17.66 4.68 18 4 C18.99 4 19.98 4 21 4 C21.268125 4.94875 21.53625 5.8975 21.8125 6.875 C22.74986588 10.25267273 22.74986588 10.25267273 26 12 C26 12.99 26 13.98 26 15 C19.92815363 13.39630636 14.93496211 10.17574365 9.625 6.9375 C8.69816406 6.38255859 7.77132812 5.82761719 6.81640625 5.25585938 C1.79290878 2.21882593 1.79290878 2.21882593 0 1 C0 0.67 0 0.34 0 0 Z " fill="#275EAD" transform="translate(82,284)"/>
<path d="M0 0 C0.34901019 8.5507496 0.26927956 19.42547175 -4 27 C-4.37668344 28.65740715 -4.72057545 30.32345271 -5 32 C-5.66 32 -6.32 32 -7 32 C-6.88501733 29.79112243 -6.75756495 27.58289213 -6.625 25.375 C-6.55539062 24.14523437 -6.48578125 22.91546875 -6.4140625 21.6484375 C-6.01735677 18.15293608 -5.16318189 15.30193568 -4 12 C-3.83201531 8.74955291 -3.83201531 8.74955291 -4 6 C-5.32 5.67 -6.64 5.34 -8 5 C-7.67 4.01 -7.34 3.02 -7 2 C-1.94736842 0 -1.94736842 0 0 0 Z " fill="#506AA7" transform="translate(282,329)"/>
<path d="M0 0 C1.37562854 1.28965176 2.70766393 2.62689293 4 4 C4 4.66 4 5.32 4 6 C5.98 6 7.96 6 10 6 C10.17015625 6.56589844 10.3403125 7.13179688 10.515625 7.71484375 C10.75796875 8.44832031 11.0003125 9.18179687 11.25 9.9375 C11.48203125 10.66839844 11.7140625 11.39929688 11.953125 12.15234375 C12.8507553 14.20570556 12.8507553 14.20570556 15.109375 14.75390625 C16.04523438 14.87572266 16.04523438 14.87572266 17 15 C17 15.66 17 16.32 17 17 C14.9375 17.8125 14.9375 17.8125 12 18 C6.17474362 14.71667368 2.71680345 10.48670986 -1 5 C-0.67 4.34 -0.34 3.68 0 3 C0 2.01 0 1.02 0 0 Z " fill="#3E79C1" transform="translate(68,266)"/>
<path d="M0 0 C0.66 0 1.32 0 2 0 C2.2475 0.9075 2.495 1.815 2.75 2.75 C4.05377867 6.13982455 5.4413433 7.52663186 8 10 C8 10.99 8 11.98 8 13 C8.66 13 9.32 13 10 13 C10.33 14.98 10.66 16.96 11 19 C7.66623598 18.45729423 5.59176053 17.78588303 3.5234375 15.0390625 C1.28132116 11.09241328 -0.42882928 7.54711236 -1 3 C-0.67 2.01 -0.34 1.02 0 0 Z M6 6 C9 7 9 7 9 7 Z " fill="#1B68C2" transform="translate(206,339)"/>
<path d="M0 0 C-0.95712891 0.61488281 -0.95712891 0.61488281 -1.93359375 1.2421875 C-2.75988281 1.78101563 -3.58617187 2.31984375 -4.4375 2.875 C-5.67306641 3.67550781 -5.67306641 3.67550781 -6.93359375 4.4921875 C-9.11038871 5.83834306 -9.11038871 5.83834306 -10 8 C-13.24220727 8.86368422 -16.50865856 9.47594093 -19.80078125 10.12109375 C-22.95515914 10.98768108 -24.52461794 11.95084267 -27 14 C-27.99 14.33 -28.98 14.66 -30 15 C-30.66 15.66 -31.32 16.32 -32 17 C-32 16.34 -32 15.68 -32 15 C-32.99 14.67 -33.98 14.34 -35 14 C-34.11441406 13.5875 -33.22882813 13.175 -32.31640625 12.75 C-31.43130371 12.33717773 -31.43130371 12.33717773 -30.52832031 11.91601562 C-29.20401112 11.2989257 -27.87912874 10.68306457 -26.55371094 10.06835938 C-22.79267736 8.32010064 -19.04913638 6.54281959 -15.32421875 4.71875 C-14.56101318 4.34878906 -13.79780762 3.97882813 -13.01147461 3.59765625 C-11.52013798 2.87380334 -10.03254163 2.14218604 -8.54907227 1.40234375 C-3.33680153 -1.11226718 -3.33680153 -1.11226718 0 0 Z " fill="#0F69B0" transform="translate(281,165)"/>
<path d="M0 0 C-0.66 0.66 -1.32 1.32 -2 2 C-2.99 2 -3.98 2 -5 2 C-5.33 2.99 -5.66 3.98 -6 5 C-6.66 5 -7.32 5 -8 5 C-8 5.66 -8 6.32 -8 7 C-8.89203125 7.13277344 -9.7840625 7.26554688 -10.703125 7.40234375 C-11.87359375 7.57894531 -13.0440625 7.75554687 -14.25 7.9375 C-15.41015625 8.11152344 -16.5703125 8.28554687 -17.765625 8.46484375 C-21.43368495 9.03335317 -21.43368495 9.03335317 -25 10 C-25.33 10.66 -25.66 11.32 -26 12 C-28.0625 13.125 -28.0625 13.125 -30 14 C-30.66 13.34 -31.32 12.68 -32 12 C-27.94201553 10.01147582 -23.87788851 8.03583734 -19.8125 6.0625 C-18.08676758 5.21655273 -18.08676758 5.21655273 -16.32617188 4.35351562 C-15.21435547 3.81533203 -14.10253906 3.27714844 -12.95703125 2.72265625 C-11.93585205 2.22515869 -10.91467285 1.72766113 -9.86254883 1.21508789 C-3.21407814 -1.60703907 -3.21407814 -1.60703907 0 0 Z " fill="#48B5D4" transform="translate(251,134)"/>
<path d="M0 0 C1.03125 0.185625 2.0625 0.37125 3.125 0.5625 C6.76148442 0.97307082 9.45437009 0.778309 13 0 C14.125 6.75 14.125 6.75 13 9 C12.34 9 11.68 9 11 9 C10.67 9.99 10.34 10.98 10 12 C10.33 9.36 10.66 6.72 11 4 C8.02277453 4.70333538 5.14743457 5.58248537 2.25 6.5625 C1.05117187 6.96662109 1.05117187 6.96662109 -0.171875 7.37890625 C-0.77515625 7.58386719 -1.3784375 7.78882813 -2 8 C-2.66 7.34 -3.32 6.68 -4 6 C-3.01 5.67 -2.02 5.34 -1 5 C-0.67 3.35 -0.34 1.7 0 0 Z " fill="#5BB0DE" transform="translate(233,178)"/>
<path d="M0 0 C4.14032846 1.54385129 7.93553053 3.51028938 11.8125 5.625 C12.40998047 5.94984375 13.00746094 6.2746875 13.62304688 6.609375 C15.08337135 7.40379151 16.54187491 8.20155376 18 9 C17.67 9.66 17.34 10.32 17 11 C15.68 10.67 14.36 10.34 13 10 C13 9.34 13 8.68 13 8 C10.53199953 9.15173355 8.95216435 10.04783565 7 12 C6.01 12 5.02 12 4 12 C4 11.34 4 10.68 4 10 C3.34 9.67 2.68 9.34 2 9 C2 8.34 2 7.68 2 7 C2.66 7 3.32 7 4 7 C4 6.01 4 5.02 4 4 C3.01 3.67 2.02 3.34 1 3 C0.67 2.01 0.34 1.02 0 0 Z " fill="#143E83" transform="translate(150,275)"/>
<path d="M0 0 C-2.04568857 2.21073933 -3.91929478 3.64395281 -6.6171875 4.97265625 C-7.65166016 5.48602539 -7.65166016 5.48602539 -8.70703125 6.00976562 C-9.42246094 6.35716797 -10.13789063 6.70457031 -10.875 7.0625 C-11.58269531 7.41376953 -12.29039062 7.76503906 -13.01953125 8.12695312 C-22.91301394 13 -22.91301394 13 -27 13 C-26.67 11.02 -26.34 9.04 -26 7 C-25.67 7.66 -25.34 8.32 -25 9 C-24.113125 8.67 -23.22625 8.34 -22.3125 8 C-19.29076653 7.08777857 -17.11626294 6.81669042 -14 7 C-14 6.34 -14 5.68 -14 5 C-13.34 5 -12.68 5 -12 5 C-12 4.01 -12 3.02 -12 2 C-7.8803623 0.70756464 -4.33168317 -0.26252625 0 0 Z " fill="#74A2C2" transform="translate(231,186)"/>
<path d="M0 0 C2.19398856 3.29098284 2.21503664 3.84832581 1.75 7.5625 C1.66234375 8.34753906 1.5746875 9.13257813 1.484375 9.94140625 C1 12 1 12 -1 14 C-1.39764263 15.98821313 -1.73775349 17.98944339 -2 20 C-3.32 20.33 -4.64 20.66 -6 21 C-5.48914188 14.56318772 -4.27057103 9.04057576 -2 3 C-1.34 3 -0.68 3 0 3 C0 2.01 0 1.02 0 0 Z " fill="#2E4C95" transform="translate(218,276)"/>
<path d="M0 0 C0.66 0 1.32 0 2 0 C2.66 1.65 3.32 3.3 4 5 C8.91120223 5.12373184 13.82149485 5.21439824 18.73388672 5.2746582 C20.40429489 5.29978078 22.07459337 5.33388552 23.74462891 5.37719727 C26.1477362 5.43795399 28.54938904 5.46623021 30.953125 5.48828125 C31.69806213 5.51408768 32.44299927 5.5398941 33.21051025 5.56648254 C35.60186562 5.62207412 35.60186562 5.62207412 39 5 C41.5338712 2.63455924 41.5338712 2.63455924 43 0 C42.67 2.31 42.34 4.62 42 7 C27.81 7 13.62 7 -1 7 C-0.67 4.69 -0.34 2.38 0 0 Z " fill="#103B8D" transform="translate(239,205)"/>
<path d="M0 0 C-0.66 1.65 -1.32 3.3 -2 5 C-2.99 5 -3.98 5 -5 5 C-5 5.99 -5 6.98 -5 8 C-5.66 8 -6.32 8 -7 8 C-6.67 9.65 -6.34 11.3 -6 13 C-8 13 -8 13 -9.625 11.5 C-10.07875 11.005 -10.5325 10.51 -11 10 C-11 10.99 -11 11.98 -11 13 C-11.66 13 -12.32 13 -13 13 C-13.4021875 14.2065625 -13.4021875 14.2065625 -13.8125 15.4375 C-14.204375 16.283125 -14.59625 17.12875 -15 18 C-15.99 18.33 -16.98 18.66 -18 19 C-16.67770645 13.97825596 -14.64823873 11.03460658 -11.125 7.25 C-10.26132813 6.30640625 -9.39765625 5.3628125 -8.5078125 4.390625 C-5.81536049 1.82398851 -3.79518905 0 0 0 Z " fill="#4470AD" transform="translate(83,219)"/>
<path d="M0 0 C0.66 0.66 1.32 1.32 2 2 C2.66 1.67 3.32 1.34 4 1 C4 1.99 4 2.98 4 4 C-1.1468192 7.16727335 -5.158256 7.35050464 -11 7 C-10.01 6.67 -9.02 6.34 -8 6 C-8 4.35 -8 2.7 -8 1 C-4.9553071 -0.84856355 -3.35670253 -1.34268101 0 0 Z " fill="#206BCF" transform="translate(272,361)"/>
<path d="M0 0 C0.33 0.66 0.66 1.32 1 2 C1.99 2.33 2.98 2.66 4 3 C0.6775023 5.01846937 -2.65706319 7.01556594 -6 9 C-6.85722656 9.51046875 -7.71445312 10.0209375 -8.59765625 10.546875 C-9.39042969 11.00578125 -10.18320312 11.4646875 -11 11.9375 C-11.721875 12.35902344 -12.44375 12.78054688 -13.1875 13.21484375 C-14.0846875 13.60349609 -14.0846875 13.60349609 -15 14 C-15.66 13.67 -16.32 13.34 -17 13 C-16.01 11.02 -15.02 9.04 -14 7 C-11.03 7.495 -11.03 7.495 -8 8 C-7.979375 7.4225 -7.95875 6.845 -7.9375 6.25 C-6.4233745 2.61609879 -3.44043825 1.75149584 0 0 Z " fill="#313549" transform="translate(369,307)"/>
<path d="M0 0 C0 0.66 0 1.32 0 2 C-0.54269531 2.18175781 -1.08539063 2.36351562 -1.64453125 2.55078125 C-2.35996094 2.80214844 -3.07539063 3.05351562 -3.8125 3.3125 C-4.52019531 3.55613281 -5.22789062 3.79976563 -5.95703125 4.05078125 C-8.05410982 4.88147951 -8.05410982 4.88147951 -9.484375 6.49609375 C-11.34479372 8.34212779 -12.95954968 8.93098101 -15.4375 9.75 C-16.19933594 10.01296875 -16.96117187 10.2759375 -17.74609375 10.546875 C-20.20513089 11.04123949 -21.64672554 10.79335904 -24 10 C-23.31035156 9.62488281 -22.62070312 9.24976563 -21.91015625 8.86328125 C-20.97042969 8.35152344 -20.03070313 7.83976562 -19.0625 7.3125 C-18.0621875 6.77109375 -17.061875 6.2296875 -16.03125 5.671875 C-14.13962184 4.62855431 -12.26162 3.55964085 -10.40625 2.453125 C-9.6328125 1.99421875 -8.859375 1.5353125 -8.0625 1.0625 C-7.02802734 0.43021484 -7.02802734 0.43021484 -5.97265625 -0.21484375 C-3.56644056 -1.17256524 -2.39617867 -0.86305317 0 0 Z " fill="#4C5063" transform="translate(352,276)"/>
<path d="M0 0 C1.485 0.99 1.485 0.99 3 2 C2.67 2.33 2.34 2.66 2 3 C7.94 6.465 7.94 6.465 14 10 C13.34 11.32 12.68 12.64 12 14 C11.34 13.67 10.68 13.34 10 13 C9.67 13.66 9.34 14.32 9 15 C7.68 15 6.36 15 5 15 C5 14.01 5 13.02 5 12 C5.66 11.67 6.32 11.34 7 11 C5.29374499 8.21611025 4.52373261 7.14615794 1.3125 6.25 C0.549375 6.1675 -0.21375 6.085 -1 6 C-0.67 4.02 -0.34 2.04 0 0 Z " fill="#3265AB" transform="translate(108,249)"/>
<path d="M0 0 C1.98 0.66 3.96 1.32 6 2 C5.01 3.485 5.01 3.485 4 5 C4 6.175625 4 7.35125 4 8.5625 C4 9.696875 4 10.83125 4 12 C3.34 12.66 2.68 13.32 2 14 C1.34 14 0.68 14 0 14 C0 11.69 0 9.38 0 7 C-2.64 7 -5.28 7 -8 7 C-8 6.34 -8 5.68 -8 5 C-4.535 4.505 -4.535 4.505 -1 4 C-0.67 2.68 -0.34 1.36 0 0 Z " fill="#0D318E" transform="translate(265,239)"/>
<path d="M0 0 C0.33 0.66 0.66 1.32 1 2 C1.66 2 2.32 2 3 2 C2.67 2.99 2.34 3.98 2 5 C2 5.33 2 5.66 2 6 C2 8.31 2 10.62 2 13 C-2.62 13 -7.24 13 -12 13 C-10 11 -10 11 -6.375 10.875 C-4.704375 10.936875 -4.704375 10.936875 -3 11 C-3.061875 9.9275 -3.12375 8.855 -3.1875 7.75 C-2.99456691 3.89133813 -2.60334924 2.71182212 0 0 Z " fill="#0C1747" transform="translate(300,232)"/>
<path d="M0 0 C0.33 0.99 0.66 1.98 1 3 C9.58 3 18.16 3 27 3 C27 3.33 27 3.66 27 4 C20.73 4.33 14.46 4.66 8 5 C8 5.66 8 6.32 8 7 C5.6739143 7.38063221 3.33944736 7.71269945 1 8 C0.67 7.67 0.34 7.34 0 7 C-2.0587768 6.72046781 -4.11728432 6.55265649 -6.1875 6.37890625 C-7.0846875 6.19134766 -7.0846875 6.19134766 -8 6 C-8.33 5.34 -8.66 4.68 -9 4 C-6.03 4 -3.06 4 0 4 C0 2.68 0 1.36 0 0 Z " fill="#516FB5" transform="translate(281,208)"/>
<path d="M0 0 C1.44792673 4.34378018 2.18981021 9.55007261 0.140625 13.76953125 C-0.39304688 14.65705078 -0.39304688 14.65705078 -0.9375 15.5625 C-4.26244926 21.40172185 -3.82924495 28.44300622 -4 35 C-4.33 35 -4.66 35 -5 35 C-7.26002364 22.53630526 -3.92573825 11.77721475 0 0 Z " fill="#7C97C7" transform="translate(208,304)"/>
<path d="M0 0 C0.99 0 1.98 0 3 0 C3 0.99 3 1.98 3 3 C3.66 3.33 4.32 3.66 5 4 C1.87907566 5.84033976 -1.24738217 7.67106256 -4.375 9.5 C-5.26445312 10.02464844 -6.15390625 10.54929688 -7.0703125 11.08984375 C-7.92109375 11.58613281 -8.771875 12.08242187 -9.6484375 12.59375 C-10.82672119 13.28500977 -10.82672119 13.28500977 -12.02880859 13.99023438 C-14 15 -14 15 -16 15 C-15.6875 13.0625 -15.6875 13.0625 -15 11 C-14.01 10.67 -13.02 10.34 -12 10 C-12 9.34 -12 8.68 -12 8 C-10.58398286 7.51891725 -9.16715563 7.04021859 -7.75 6.5625 C-6.96109375 6.29566406 -6.1721875 6.02882812 -5.359375 5.75390625 C-3.25178012 5.08045292 -1.15246027 4.50849405 1 4 C0.67 2.68 0.34 1.36 0 0 Z " fill="#31374B" transform="translate(185,204)"/>
<path d="M0 0 C1.78668759 3.57337518 0.70452267 7.25940779 0.12109375 11.0625 C-0.13519071 13.2190765 -0.13519071 13.2190765 1 16 C-4.75 14.125 -4.75 14.125 -7 13 C-5.74875245 7.31251115 -3.95897432 4.27152492 0 0 Z " fill="#1B243F" transform="translate(319,195)"/>
<path d="M0 0 C-2.94377675 0.86778 -5.38229603 1.03384943 -8.4375 0.875 C-11.58238125 0.82394673 -12.6981488 0.81424542 -15.4375 2.5 C-19.42120909 4.83192727 -23.48853197 4.23652357 -28 4 C-19.73934392 -1.50710405 -9.35759559 -4.99071765 0 0 Z " fill="#94DDE0" transform="translate(279,129)"/>
<path d="M0 0 C0.33 0.66 0.66 1.32 1 2 C-0.29296875 4.53125 -0.29296875 4.53125 -2.1875 7.5 C-2.79980469 8.4796875 -3.41210938 9.459375 -4.04296875 10.46875 C-5.95086487 12.93644798 -7.12332911 13.92842415 -10 15 C-10 12.36 -10 9.72 -10 7 C-8.906875 6.401875 -7.81375 5.80375 -6.6875 5.1875 C-4.08925871 3.70955303 -1.95650507 2.30177067 0 0 Z " fill="#4167A6" transform="translate(434,266)"/>
<path d="M0 0 C2.92879371 0.62759865 5.36095629 1.58622659 8 3 C8 3.66 8 4.32 8 5 C6.02 5.66 4.04 6.32 2 7 C2 6.34 2 5.68 2 5 C-2.95 5 -7.9 5 -13 5 C-13 4.34 -13 3.68 -13 3 C-11.39679026 2.80448662 -9.79237014 2.61888017 -8.1875 2.4375 C-7.29417969 2.33308594 -6.40085938 2.22867188 -5.48046875 2.12109375 C-3 2 -3 2 0 3 C0 2.01 0 1.02 0 0 Z " fill="#2D78C9" transform="translate(224,240)"/>
<path d="M0 0 C2.31 0.33 4.62 0.66 7 1 C7 1.66 7 2.32 7 3 C7.66 3 8.32 3 9 3 C9.33 3.66 9.66 4.32 10 5 C11.98 4.67 13.96 4.34 16 4 C16 4.66 16 5.32 16 6 C16.66 6.33 17.32 6.66 18 7 C17.67 7.66 17.34 8.32 17 9 C12.50155661 9.06335836 8.53200315 9.0958265 4.77734375 6.41015625 C0 1.61319302 0 1.61319302 0 0 Z " fill="#518FCB" transform="translate(213,357)"/>
<path d="M0 0 C0 0.99 0 1.98 0 3 C1.32 3.66 2.64 4.32 4 5 C2.875 6.5625 2.875 6.5625 1 8 C-2 8.0625 -2 8.0625 -5 7 C-6.875 3.9375 -6.875 3.9375 -8 1 C-5.29120665 -0.35439668 -2.99066732 -0.06501451 0 0 Z " fill="#2E4471" transform="translate(148,313)"/>
<path d="M0 0 C2.75 -0.25 2.75 -0.25 6 0 C7.35500919 1.31129922 8.68671343 2.64691687 10 4 C12.32108669 4.70812814 14.65377147 5.38024152 17 6 C17.33 6.66 17.66 7.32 18 8 C19.64363134 8.72159424 21.31050386 9.39351421 23 10 C23 10.66 23 11.32 23 12 C16.60601826 10.45306893 11.99961283 8.43726339 6.375 5 C5.76398438 4.63132813 5.15296875 4.26265625 4.5234375 3.8828125 C2.99811697 2.94991557 1.49671402 1.97813423 0 1 C0 0.67 0 0.34 0 0 Z " fill="#3A568B" transform="translate(377,243)"/>
<path d="M0 0 C0.66 0.66 1.32 1.32 2 2 C1.9765625 4.1640625 1.9765625 4.1640625 1.625 6.625 C1.45871094 7.85089844 1.45871094 7.85089844 1.2890625 9.1015625 C1.14597656 10.04128906 1.14597656 10.04128906 1 11 C-3.97209562 9.23570801 -8.43438061 6.6060834 -13 4 C-9.12331765 2.70777255 -7.37094106 3.35261116 -3.75 5.0625 C-3.1725 5.371875 -2.595 5.68125 -2 6 C-1.34 4.02 -0.68 2.04 0 0 Z " fill="#3B3E57" transform="translate(177,327)"/>
<path d="M0 0 C-0.33 0.66 -0.66 1.32 -1 2 C-1.75925781 1.97679687 -2.51851562 1.95359375 -3.30078125 1.9296875 C-4.79158203 1.90261719 -4.79158203 1.90261719 -6.3125 1.875 C-7.29863281 1.85179687 -8.28476563 1.82859375 -9.30078125 1.8046875 C-12.22406527 1.79317361 -12.22406527 1.79317361 -15 4 C-18.56281213 4 -21.5039735 3.58267108 -25 3 C-28.33006629 2.63110044 -31.66396644 2.30986873 -35 2 C-35 1.67 -35 1.34 -35 1 C-23.32446893 0.37160039 -11.69591188 -0.17691295 0 0 Z " fill="#317DD6" transform="translate(252,212)"/>
<path d="M0 0 C1.13087014 3.39261042 0.86514295 4.16517757 -0.21484375 7.44921875 C-0.62573242 8.72055664 -0.62573242 8.72055664 -1.04492188 10.01757812 C-1.48674805 11.33918945 -1.48674805 11.33918945 -1.9375 12.6875 C-2.22818359 13.58017578 -2.51886719 14.47285156 -2.81835938 15.39257812 C-3.53769987 17.59776948 -4.26516672 19.79993258 -5 22 C-7 19 -7 19 -6.69140625 16.70703125 C-6.46324219 15.81371094 -6.23507813 14.92039062 -6 14 C-5.63851898 11.89707754 -5.28453644 9.79285439 -4.9375 7.6875 C-4.76089844 6.61886719 -4.58429688 5.55023438 -4.40234375 4.44921875 C-4.26957031 3.64097656 -4.13679687 2.83273437 -4 2 C-3.67 2.99 -3.34 3.98 -3 5 C-2.690625 4.360625 -2.38125 3.72125 -2.0625 3.0625 C-1 1 -1 1 0 0 Z " fill="#556FAF" transform="translate(256,292)"/>
<path d="M0 0 C0.66 0.66 1.32 1.32 2 2 C1.828125 4.2421875 1.828125 4.2421875 1.25 6.875 C0.97929687 8.17050781 0.97929687 8.17050781 0.703125 9.4921875 C0.03785668 11.86497785 -0.81756385 13.84556125 -2 16 C-2.66 15.67 -3.32 15.34 -4 15 C-4 12.03 -4 9.06 -4 6 C-3.01 6 -2.02 6 -1 6 C-1.020625 5.195625 -1.04125 4.39125 -1.0625 3.5625 C-1 1 -1 1 0 0 Z " fill="#2B6CAA" transform="translate(288,177)"/>
<path d="M0 0 C0.66 0.66 1.32 1.32 2 2 C1 5 1 5 -1 6 C-1.309375 6.969375 -1.61875 7.93875 -1.9375 8.9375 C-3 12 -3 12 -6 14 C-7.4673913 8.13043478 -7.4673913 8.13043478 -6 5 C-4.09718181 3.16060908 -2.10874104 1.61520591 0 0 Z " fill="#103D9E" transform="translate(215,299)"/>
<path d="M0 0 C0.99 0 1.98 0 3 0 C1.64746536 6.45054982 -0.03060233 12.71105679 -2 19 C-4 16 -4 16 -3.57421875 12.71484375 C-3.28160156 11.46832031 -2.98898437 10.22179687 -2.6875 8.9375 C-2.40261719 7.68839844 -2.11773437 6.43929688 -1.82421875 5.15234375 C-1 2 -1 2 0 0 Z " fill="#47527F" transform="translate(266,251)"/>
<path d="M0 0 C4.14032846 1.54385129 7.93553053 3.51028938 11.8125 5.625 C12.40998047 5.94984375 13.00746094 6.2746875 13.62304688 6.609375 C15.08337135 7.40379151 16.54187491 8.20155376 18 9 C17.34 9.66 16.68 10.32 16 11 C12.375 10.625 12.375 10.625 9 10 C9.33 8.68 9.66 7.36 10 6 C9.0925 5.9175 8.185 5.835 7.25 5.75 C3.5912852 4.9056812 2.33248238 3.87074755 0 1 C0 0.67 0 0.34 0 0 Z " fill="#62799D" transform="translate(386,202)"/>
<path d="M0 0 C1.98 0 3.96 0 6 0 C6 0.99 6 1.98 6 3 C7.175625 3.0928125 7.175625 3.0928125 8.375 3.1875 C9.24125 3.455625 10.1075 3.72375 11 4 C12.3125 6.5625 12.3125 6.5625 13 9 C7.68972746 7.53967505 3.53669968 5.01679014 -1 2 C-0.67 1.34 -0.34 0.68 0 0 Z " fill="#465D8A" transform="translate(129,309)"/>
<path d="M0 0 C4.23364476 1.41121492 5.96085259 4.11139332 8 8 C8.3125 11.4375 8.3125 11.4375 8 14 C7.01 14.33 6.02 14.66 5 15 C5 14.34 5 13.68 5 13 C4.01 12.67 3.02 12.34 2 12 C2.66 11.34 3.32 10.68 4 10 C4.18490007 7.67642489 4.18490007 7.67642489 2 5 C1.01 4.67 0.02 4.34 -1 4 C-0.67 3.34 -0.34 2.68 0 2 C0 1.34 0 0.68 0 0 Z " fill="#2559A2" transform="translate(425,225)"/>
<path d="M0 0 C2.00720923 0.28674418 4.0085944 0.61866701 6 1 C5 4 5 4 3 6 C-0.51697305 7.09905408 -2.45251328 7.18249557 -6 6 C-6 5.01 -6 4.02 -6 3 C-5.195625 2.690625 -4.39125 2.38125 -3.5625 2.0625 C-1.10919595 1.23664655 -1.10919595 1.23664655 0 0 Z " fill="#050E2C" transform="translate(90,216)"/>
<path d="M0 0 C8.91 0 17.82 0 27 0 C26.34 1.98 25.68 3.96 25 6 C24.34 6 23.68 6 23 6 C22.67 4.35 22.34 2.7 22 1 C21.16597656 1.08378906 20.33195312 1.16757813 19.47265625 1.25390625 C12.76204941 1.8611662 6.66283545 2.01636473 0 1 C0 0.67 0 0.34 0 0 Z " fill="#0E2567" transform="translate(282,212)"/>
<path d="M0 0 C0.66 0 1.32 0 2 0 C1.835 0.763125 1.67 1.52625 1.5 2.3125 C0.90854604 5.03596236 0.90854604 5.03596236 1 8 C0.484375 9.97265625 0.484375 9.97265625 -0.25 12.0625 C-0.48203125 12.75472656 -0.7140625 13.44695312 -0.953125 14.16015625 C-2.26657476 16.46849519 -3.57352487 17.03241798 -6 18 C-4.41039668 11.76559832 -2.72399099 5.83712355 0 0 Z " fill="#475B91" transform="translate(226,247)"/>
<path d="M0 0 C0.66 0 1.32 0 2 0 C2.33 6.27 2.66 12.54 3 19 C3.66 19 4.32 19 5 19 C5 20.65 5 22.3 5 24 C-1.12572943 17.03894383 -0.23646014 8.73588846 0 0 Z " fill="#6C92BC" transform="translate(62,245)"/>
<path d="M0 0 C0.66 0 1.32 0 2 0 C2 0.66 2 1.32 2 2 C3.13888672 2.09087891 3.13888672 2.09087891 4.30078125 2.18359375 C5.29464844 2.26738281 6.28851563 2.35117187 7.3125 2.4375 C8.29863281 2.51871094 9.28476563 2.59992188 10.30078125 2.68359375 C13 3 13 3 16 4 C16 4.66 16 5.32 16 6 C14.68 6 13.36 6 12 6 C12 6.66 12 7.32 12 8 C7.1725201 6.58707905 3.2837641 4.57025846 -1 2 C-0.67 1.34 -0.34 0.68 0 0 Z " fill="#30528E" transform="translate(116,302)"/>
<path d="M0 0 C5.27459249 0.45470625 9.51524628 0.93724136 14 4 C14.875 6.6875 14.875 6.6875 15 9 C11.32305352 7.62859834 8.04681411 5.96304199 4.6875 3.9375 C3.80449219 3.41027344 2.92148438 2.88304687 2.01171875 2.33984375 C1.34785156 1.89769531 0.68398437 1.45554687 0 1 C0 0.67 0 0.34 0 0 Z " fill="#5882B9" transform="translate(82,284)"/>
<path d="M0 0 C1.125 1.625 1.125 1.625 2 4 C1.125 7.25 1.125 7.25 0 10 C0.66 10.33 1.32 10.66 2 11 C1.6875 12.875 1.6875 12.875 1 15 C0.01 15.66 -0.98 16.32 -2 17 C-3.08947414 11.66157672 -2.77849225 8.13786651 -1 3 C-0.67 2.01 -0.34 1.02 0 0 Z " fill="#17307C" transform="translate(222,261)"/>
<path d="M0 0 C0.928125 0.639375 1.85625 1.27875 2.8125 1.9375 C5.84219943 4.08622093 5.84219943 4.08622093 9 5 C9 5.66 9 6.32 9 7 C9.99 7 10.98 7 12 7 C12.33 8.32 12.66 9.64 13 11 C9.34426939 9.62992438 6.04532353 7.98982135 2.6875 6 C1.80449219 5.484375 0.92148437 4.96875 0.01171875 4.4375 C-0.65214844 3.963125 -1.31601562 3.48875 -2 3 C-2 2.34 -2 1.68 -2 1 C-1.34 0.67 -0.68 0.34 0 0 Z " fill="#475676" transform="translate(343,221)"/>
<path d="M0 0 C0.66 0.99 1.32 1.98 2 3 C2.66 2.67 3.32 2.34 4 2 C4.36923077 7.41538462 4.36923077 7.41538462 2.5 10.375 C2.005 10.91125 1.51 11.4475 1 12 C1 11.34 1 10.68 1 10 C0.34 10 -0.32 10 -1 10 C-1 10.66 -1 11.32 -1 12 C-1.66 12 -2.32 12 -3 12 C-2.01 8.04 -1.02 4.08 0 0 Z " fill="#153E85" transform="translate(244,187)"/>
<path d="M0 0 C2 1 2 1 2.61328125 2.73828125 C3.91430976 10.34732678 2.93872936 17.60859432 1 25 C0.67 25 0.34 25 0 25 C0 16.75 0 8.5 0 0 Z " fill="#59A2C6" transform="translate(292,146)"/>
<path d="M0 0 C0.66 0 1.32 0 2 0 C2.01417969 0.56847656 2.02835938 1.13695312 2.04296875 1.72265625 C2.42934329 7.97774682 4.00675974 11.18763354 8 16 C7.34 16.66 6.68 17.32 6 18 C-1.25603448 8.26163793 -1.25603448 8.26163793 -0.625 2.6875 C-0.41875 1.800625 -0.2125 0.91375 0 0 Z " fill="#396DBA" transform="translate(206,339)"/>
<path d="M0 0 C-0.63808594 0.40992188 -1.27617187 0.81984375 -1.93359375 1.2421875 C-3.17302734 2.05042969 -3.17302734 2.05042969 -4.4375 2.875 C-5.67306641 3.67550781 -5.67306641 3.67550781 -6.93359375 4.4921875 C-9.11038871 5.83834306 -9.11038871 5.83834306 -10 8 C-12.64 7.67 -15.28 7.34 -18 7 C-15.45307479 4.45307479 -12.82197965 3.34231152 -9.5625 1.8125 C-8.40878906 1.26207031 -7.25507813 0.71164063 -6.06640625 0.14453125 C-3 -1 -3 -1 0 0 Z " fill="#1076BA" transform="translate(281,165)"/>
<path d="M0 0 C1.051875 0.495 1.051875 0.495 2.125 1 C5.28694233 2.09980603 7.67494653 2.14456754 11 2 C14 2 14 2 17 4 C12.73383684 5.13764351 9.43513689 6 5 6 C5 5.34 5 4.68 5 4 C3.35 3.67 1.7 3.34 0 3 C0 2.01 0 1.02 0 0 Z " fill="#819FD0" transform="translate(255,330)"/>
<path d="M0 0 C0.99 0 1.98 0 3 0 C3.88336837 2.4667645 4.1312406 3.63859372 3.22265625 6.140625 C2.83980469 6.83671875 2.45695313 7.5328125 2.0625 8.25 C1.68222656 8.95640625 1.30195313 9.6628125 0.91015625 10.390625 C0.60980469 10.92171875 0.30945313 11.4528125 0 12 C-0.66 11.67 -1.32 11.34 -2 11 C-2 8.36 -2 5.72 -2 3 C-1.34 3 -0.68 3 0 3 C0 2.01 0 1.02 0 0 Z " fill="#3288C0" transform="translate(211,153)"/>
<path d="M0 0 C0.66 0.33 1.32 0.66 2 1 C1.52346733 5.12994985 0.94969302 8.34432558 -1 12 C-1.37668344 13.65740715 -1.72057545 15.32345271 -2 17 C-2.66 17 -3.32 17 -4 17 C-3.67 12.38 -3.34 7.76 -3 3 C-2.01 3.33 -1.02 3.66 0 4 C0 2.68 0 1.36 0 0 Z " fill="#7B96CA" transform="translate(279,344)"/>
<path d="M0 0 C-0.11351517 1.81325551 -0.24112961 3.62563357 -0.375 5.4375 C-0.44460938 6.44683594 -0.51421875 7.45617187 -0.5859375 8.49609375 C-0.72257812 9.32238281 -0.85921875 10.14867187 -1 11 C-1.99 11.495 -1.99 11.495 -3 12 C-3.13277344 11.30132812 -3.26554687 10.60265625 -3.40234375 9.8828125 C-3.57894531 8.97273438 -3.75554687 8.06265625 -3.9375 7.125 C-4.11152344 6.22007812 -4.28554688 5.31515625 -4.46484375 4.3828125 C-4.89963701 2.00043683 -4.89963701 2.00043683 -6 0 C-3 -1 -3 -1 0 0 Z " fill="#0B3BA9" transform="translate(279,335)"/>
<path d="M0 0 C4.875 1.75 4.875 1.75 6 4 C0.82421875 7.22265625 0.82421875 7.22265625 -1 8 C-1.99 7.67 -2.98 7.34 -4 7 C-2.79618552 4.50638429 -1.54571278 2.31856917 0 0 Z " fill="#2C3249" transform="translate(158,218)"/>
<path d="M0 0 C1.32 0 2.64 0 4 0 C3.34 1.65 2.68 3.3 2 5 C2.99 5.33 3.98 5.66 5 6 C5 6.66 5 7.32 5 8 C4.34 8 3.68 8 3 8 C2.67 9.32 2.34 10.64 2 12 C-0.25900493 9.74099507 -0.34458029 9.05816925 -0.6875 6 C-0.77386719 5.29875 -0.86023438 4.5975 -0.94921875 3.875 C-1 2 -1 2 0 0 Z " fill="#091E4B" transform="translate(185,297)"/>
<path d="M0 0 C3.58724724 1.33240612 6.91649289 2.70939472 10 5 C10 6.32 10 7.64 10 9 C9.34 9 8.68 9 8 9 C7.67 9.99 7.34 10.98 7 12 C5.875 8.25 5.875 8.25 7 6 C6.21625 5.938125 5.4325 5.87625 4.625 5.8125 C3.75875 5.544375 2.8925 5.27625 2 5 C0.6875 2.4375 0.6875 2.4375 0 0 Z " fill="#44699F" transform="translate(404,212)"/>
<path d="M0 0 C2.5136617 0.83788723 4.64444198 1.82222099 7 3 C7.99 3.33 8.98 3.66 10 4 C10 4.99 10 5.98 10 7 C3.6 7.49230769 3.6 7.49230769 0.5625 5 C0.046875 4.34 -0.46875 3.68 -1 3 C-0.67 2.01 -0.34 1.02 0 0 Z " fill="#132755" transform="translate(333,214)"/>
<path d="M0 0 C-0.33 0.99 -0.66 1.98 -1 3 C-3.06640625 3.73046875 -3.06640625 3.73046875 -5.5625 4.1875 C-6.38878906 4.34605469 -7.21507812 4.50460938 -8.06640625 4.66796875 C-9.02353516 4.83232422 -9.02353516 4.83232422 -10 5 C-9.21875 1.1640625 -9.21875 1.1640625 -7.25 -0.3125 C-4.48679971 -1.1568112 -2.75194864 -0.76443018 0 0 Z " fill="#51A2CD" transform="translate(222,148)"/>
<path d="M0 0 C2.12636813 0.28151916 4.25108528 0.57553263 6.375 0.875 C7.55835938 1.03742188 8.74171875 1.19984375 9.9609375 1.3671875 C13 2 13 2 15 4 C15 4.66 15 5.32 15 6 C9.22621075 5.5188509 5.04140164 3.81532819 0 1 C0 0.67 0 0.34 0 0 Z " fill="#6AA8D7" transform="translate(223,365)"/>
<path d="M0 0 C4.51617599 -0.07654536 8.59085217 -0.10228696 13 1 C12.34 2.65 11.68 4.3 11 6 C9.35 5.67 7.7 5.34 6 5 C6 4.34 6 3.68 6 3 C3.03 2.505 3.03 2.505 0 2 C0 1.34 0 0.68 0 0 Z " fill="#081438" transform="translate(164,328)"/>
<path d="M0 0 C-0.66 1.65 -1.32 3.3 -2 5 C-2.99 5 -3.98 5 -5 5 C-5 5.99 -5 6.98 -5 8 C-5.66 8 -6.32 8 -7 8 C-7.33 8.66 -7.66 9.32 -8 10 C-8.66 9.67 -9.32 9.34 -10 9 C-9.66032174 5.82966958 -9.00130809 5.00117393 -6.5625 2.8125 C-2.5862069 0 -2.5862069 0 0 0 Z " fill="#3C4C6E" transform="translate(83,219)"/>
<path d="M0 0 C3.59391114 1.33488128 6.75490696 2.96022723 10 5 C8 7 8 7 5 7.25 C2 7 2 7 0 5 C-0.125 2.375 -0.125 2.375 0 0 Z " fill="#465C81" transform="translate(361,188)"/>
<path d="M0 0 C1.32 0.99 2.64 1.98 4 3 C4.66 2.67 5.32 2.34 6 2 C6 2.99 6 3.98 6 5 C0.375 8 0.375 8 -3 8 C-2.625 6.0625 -2.625 6.0625 -2 4 C-1.34 3.67 -0.68 3.34 0 3 C0 2.01 0 1.02 0 0 Z " fill="#5482C2" transform="translate(270,360)"/>
<path d="M0 0 C0.33 0 0.66 0 1 0 C1.3125 2.6953125 1.3125 2.6953125 1 6 C-1.1875 8.5546875 -1.1875 8.5546875 -4 10.875 C-4.928125 11.65617188 -5.85625 12.43734375 -6.8125 13.2421875 C-7.534375 13.82226562 -8.25625 14.40234375 -9 15 C-9.66 14.67 -10.32 14.34 -11 14 C-10.54109375 13.57589844 -10.0821875 13.15179688 -9.609375 12.71484375 C-5.47640381 8.76420952 -2.59838877 5.09284198 0 0 Z " fill="#189DD5" transform="translate(291,149)"/>
<path d="M0 0 C2.64 0.33 5.28 0.66 8 1 C5.45368965 3.97069541 2.57769851 5.4775751 -1 7 C-1.66 6.67 -2.32 6.34 -3 6 C-2.01 4.02 -1.02 2.04 0 0 Z " fill="#606475" transform="translate(355,314)"/>
<path d="M0 0 C0.33 0 0.66 0 1 0 C1.33 1.65 1.66 3.3 2 5 C8.93 5.33 15.86 5.66 23 6 C23 6.33 23 6.66 23 7 C15.41 7 7.82 7 0 7 C-1.04449911 3.86650268 -0.93423645 3.01031744 0 0 Z " fill="#D1EFF5" transform="translate(198,240)"/>
<path d="M0 0 C1.0326802 2.78823655 1.04509293 3.8677274 0.0625 6.75 C-0.288125 7.4925 -0.63875 8.235 -1 9 C-0.34 9 0.32 9 1 9 C1 8.34 1 7.68 1 7 C1.66 7 2.32 7 3 7 C1.66666667 9.66666667 0.33333333 12.33333333 -1 15 C-1.66 15 -2.32 15 -3 15 C-2.5547115 9.72684667 -1.91626837 4.98229776 0 0 Z " fill="#546D9C" transform="translate(242,190)"/>
<path d="M0 0 C1.65 0 3.3 0 5 0 C5 0.99 5 1.98 5 3 C4.34 3 3.68 3 3 3 C3 3.99 3 4.98 3 6 C2.34 6 1.68 6 1 6 C1 6.66 1 7.32 1 8 C-0.32 7.67 -1.64 7.34 -3 7 C-2.34 6.34 -1.68 5.68 -1 5 C-0.35232207 2.42938689 -0.35232207 2.42938689 0 0 Z " fill="#2B8ED6" transform="translate(216,185)"/>
<path d="M0 0 C-3.95523655 2.75668002 -7.22423661 3.5317879 -12 4 C-12 4.66 -12 5.32 -12 6 C-13.65 6 -15.3 6 -17 6 C-12.95949853 2.60597877 -5.26362255 -2.63181127 0 0 Z " fill="#97D4E3" transform="translate(251,134)"/>
<path d="M0 0 C-2.64056472 2.64056472 -4.31337858 2.61216394 -8 3 C-10.29487216 2.91897376 -12.58832053 2.77250118 -14.875 2.5625 C-16.02742187 2.46066406 -17.17984375 2.35882813 -18.3671875 2.25390625 C-19.23601562 2.17011719 -20.10484375 2.08632813 -21 2 C-21 1.67 -21 1.34 -21 1 C-13.97252688 0.33411422 -7.05985273 -0.11766421 0 0 Z " fill="#4D96D2" transform="translate(267,368)"/>
<path d="M0 0 C1.485 0.99 1.485 0.99 3 2 C2.67 2.33 2.34 2.66 2 3 C5.465 4.98 5.465 4.98 9 7 C8.01 7.66 7.02 8.32 6 9 C5.34 8.34 4.68 7.68 4 7 C1.42938689 6.35232207 1.42938689 6.35232207 -1 6 C-0.67 4.02 -0.34 2.04 0 0 Z " fill="#5C7DA9" transform="translate(108,249)"/>
<path d="M0 0 C0.33 0 0.66 0 1 0 C1.55353075 11.52164009 1.55353075 11.52164009 -2 17 C-3.44715727 13.12813552 -2.5441918 10.1767672 -1.5625 6.25 C-1.27503906 5.07953125 -0.98757812 3.9090625 -0.69140625 2.703125 C-0.46324219 1.81109375 -0.23507813 0.9190625 0 0 Z " fill="#8FC7E2" transform="translate(202,223)"/>
<path d="M0 0 C4 0 4 0 5.5625 1.3125 C6.036875 1.869375 6.51125 2.42625 7 3 C7.556875 3.556875 8.11375 4.11375 8.6875 4.6875 C9.3371875 5.3371875 9.3371875 5.3371875 10 6 C7 7 7 7 5.17578125 6.22265625 C3.45052083 5.1484375 1.72526042 4.07421875 0 3 C0 2.01 0 1.02 0 0 Z " fill="#1C274A" transform="translate(321,210)"/>
<path d="M0 0 C-0.33 0.66 -0.66 1.32 -1 2 C-4.01490557 3.00496852 -6.04181692 3.10335303 -9.1875 3.0625 C-10.53908203 3.04896484 -10.53908203 3.04896484 -11.91796875 3.03515625 C-12.60503906 3.02355469 -13.29210937 3.01195312 -14 3 C-11.39395012 1.26263341 -9.92766764 0.54996173 -7 -0.1875 C-6.319375 -0.36667969 -5.63875 -0.54585937 -4.9375 -0.73046875 C-3 -1 -3 -1 0 0 Z " fill="#7ED5DB" transform="translate(265,130)"/>
<path d="M0 0 C3.91211733 1.15585285 6.8745041 2.35534962 10 5 C1.42857143 5.14285714 1.42857143 5.14285714 -2 4 C-1.67 3.34 -1.34 2.68 -1 2 C-0.34 2.33 0.32 2.66 1 3 C0.67 2.01 0.34 1.02 0 0 Z " fill="#53678F" transform="translate(371,194)"/>
<path d="M0 0 C0 1.65 0 3.3 0 5 C-1.32 4.67 -2.64 4.34 -4 4 C-4.33 4.66 -4.66 5.32 -5 6 C-5.66 5.34 -6.32 4.68 -7 4 C-7.66 3.67 -8.32 3.34 -9 3 C-5.55930376 0.70620251 -4.27709699 0 0 0 Z " fill="#424455" transform="translate(191,162)"/>
<path d="M0 0 C3.88862987 1.26117725 5.89375599 2.45264167 8 6 C8 6.66 8 7.32 8 8 C6.68 8 5.36 8 4 8 C3.67 7.01 3.34 6.02 3 5 C2.484375 4.484375 1.96875 3.96875 1.4375 3.4375 C0.963125 2.963125 0.48875 2.48875 0 2 C0 1.34 0 0.68 0 0 Z " fill="#55C9D3" transform="translate(283,134)"/>
<path d="M0 0 C0.33 0 0.66 0 1 0 C1.02578125 0.58007812 1.0515625 1.16015625 1.078125 1.7578125 C1.48567151 7.3708394 2.49364211 10.58877555 6 15 C5.01 15.495 5.01 15.495 4 16 C3.34 15.34 2.68 14.68 2 14 C1.45730469 13.58105469 0.91460937 13.16210938 0.35546875 12.73046875 C-1 11 -1 11 -1.07421875 8.30078125 C-0.94660156 7.31464844 -0.81898438 6.32851563 -0.6875 5.3125 C-0.56761719 4.31863281 -0.44773438 3.32476562 -0.32421875 2.30078125 C-0.21722656 1.54152344 -0.11023438 0.78226562 0 0 Z " fill="#94B5DB" transform="translate(249,315)"/>
<path d="M0 0 C1.65 0 3.3 0 5 0 C5.66 1.32 6.32 2.64 7 4 C3.94736336 4.98120464 2.05263664 4.98120464 -1 4 C-0.67 2.68 -0.34 1.36 0 0 Z " fill="#164188" transform="translate(145,275)"/>
<path d="M0 0 C2.75 -0.25 2.75 -0.25 6 0 C8.25 1.9375 8.25 1.9375 10 4 C10.66 4.33 11.32 4.66 12 5 C12 5.66 12 6.32 12 7 C7.69235185 5.43358249 3.93828536 3.31663844 0 1 C0 0.67 0 0.34 0 0 Z " fill="#677C9F" transform="translate(377,243)"/>
<path d="M0 0 C2.0625 0.4375 2.0625 0.4375 4 1 C0.4912812 4.09592835 -2.49197399 5.74194623 -7 7 C-6.8125 5.125 -6.8125 5.125 -6 3 C-3.5 1.8125 -3.5 1.8125 -1 1 C-0.67 0.67 -0.34 0.34 0 0 Z " fill="#535969" transform="translate(125,239)"/>
<path d="M0 0 C-2.36092311 2.73370045 -4.56538728 3.91097645 -8 5 C-9.32 5 -10.64 5 -12 5 C-12 4.01 -12 3.02 -12 2 C-7.8803623 0.70756464 -4.33168317 -0.26252625 0 0 Z " fill="#63A6CE" transform="translate(231,186)"/>
<path d="M0 0 C0.66 0.66 1.32 1.32 2 2 C0.25 5.875 0.25 5.875 -2 7 C-2.33 7.99 -2.66 8.98 -3 10 C-3.66 8.02 -4.32 6.04 -5 4 C-4.34 4 -3.68 4 -3 4 C-2.67 3.01 -2.34 2.02 -2 1 C-1.34 0.67 -0.68 0.34 0 0 Z " fill="#060B29" transform="translate(184,165)"/>
<path d="M0 0 C1.65 0.33 3.3 0.66 5 1 C1.4912812 4.09592835 -1.49197399 5.74194623 -6 7 C-6 6.01 -6 5.02 -6 4 C-4.02 3.34 -2.04 2.68 0 2 C0 1.34 0 0.68 0 0 Z " fill="#5A5F70" transform="translate(330,329)"/>
<path d="M0 0 C-0.75 4.75 -0.75 4.75 -3 7 C-3 6.34 -3 5.68 -3 5 C-4.32 4.67 -5.64 4.34 -7 4 C-3.375 0 -3.375 0 0 0 Z " fill="#354263" transform="translate(193,298)"/>
<path d="M0 0 C0.99 0 1.98 0 3 0 C3 0.66 3 1.32 3 2 C4.65 2 6.3 2 8 2 C8 2.66 8 3.32 8 4 C6.68 4.33 5.36 4.66 4 5 C4 4.34 4 3.68 4 3 C3.01 3.66 2.02 4.32 1 5 C0.01 5 -0.98 5 -2 5 C-1.125 1.125 -1.125 1.125 0 0 Z " fill="#11387C" transform="translate(160,283)"/>
<path d="M0 0 C3.59391114 1.33488128 6.75490696 2.96022723 10 5 C9.67 5.66 9.34 6.32 9 7 C7.35 6.67 5.7 6.34 4 6 C4 5.34 4 4.68 4 4 C3.01 3.67 2.02 3.34 1 3 C0.67 2.01 0.34 1.02 0 0 Z " fill="#596FA1" transform="translate(150,275)"/>
<path d="M0 0 C0.33 0.66 0.66 1.32 1 2 C1.66 2 2.32 2 3 2 C2.67 2.99 2.34 3.98 2 5 C1.34 4.67 0.68 4.34 0 4 C-0.33 6.31 -0.66 8.62 -1 11 C-1.66 11 -2.32 11 -3 11 C-3.36923077 4.6 -3.36923077 4.6 -1.5 1.5625 C-1.005 1.046875 -0.51 0.53125 0 0 Z " fill="#0A1954" transform="translate(300,232)"/>
<path d="M0 0 C1.11375 0.3403125 1.11375 0.3403125 2.25 0.6875 C-0.10277269 3.41176311 -2.37496331 4.5016763 -5.75 5.6875 C-6.08 4.6975 -6.41 3.7075 -6.75 2.6875 C-4.29511132 0.41445492 -3.41240272 -0.38777304 0 0 Z " fill="#43485A" transform="translate(137.75,233.3125)"/>
<path d="M0 0 C0.99 0 1.98 0 3 0 C2.47462276 5.0302076 1.89405214 10.01885239 1 15 C0.67 15 0.34 15 0 15 C-0.66 12.36 -1.32 9.72 -2 7 C-1.34 7 -0.68 7 0 7 C0.33 6.34 0.66 5.68 1 5 C0.34 5 -0.32 5 -1 5 C-0.67 3.35 -0.34 1.7 0 0 Z " fill="#626A8E" transform="translate(302,229)"/>
<path d="M0 0 C-0.33 0.99 -0.66 1.98 -1 3 C-3.06640625 3.73046875 -3.06640625 3.73046875 -5.5625 4.1875 C-6.38878906 4.34605469 -7.21507813 4.50460938 -8.06640625 4.66796875 C-9.02353516 4.83232422 -9.02353516 4.83232422 -10 5 C-10 4.01 -10 3.02 -10 2 C-6.3558226 -0.4294516 -4.28758728 -0.16179575 0 0 Z " fill="#0A102B" transform="translate(119,203)"/>
<path d="M0 0 C1.65 0.33 3.3 0.66 5 1 C5 1.99 5 2.98 5 4 C4.34 4 3.68 4 3 4 C2.67 4.99 2.34 5.98 2 7 C1.01 6.67 0.02 6.34 -1 6 C-0.67 4.02 -0.34 2.04 0 0 Z " fill="#14254D" transform="translate(338,177)"/>
<path d="M0 0 C0.66 0.33 1.32 0.66 2 1 C1.67 1.66 1.34 2.32 1 3 C0.34 3 -0.32 3 -1 3 C-1 3.66 -1 4.32 -1 5 C-3.35438733 6.42944945 -4.48032433 7.08661261 -7.25 6.625 C-7.8275 6.41875 -8.405 6.2125 -9 6 C-6.12050853 3.76039553 -3.23257974 1.70135776 0 0 Z " fill="#444759" transform="translate(180,166)"/>
<path d="M0 0 C0.66 0.33 1.32 0.66 2 1 C0.515 3.475 0.515 3.475 -1 6 C-1.99 5.67 -2.98 5.34 -4 5 C-4.33 5.66 -4.66 6.32 -5 7 C-5 6.34 -5 5.68 -5 5 C-5.66 4.67 -6.32 4.34 -7 4 C-1.7265625 0.77734375 -1.7265625 0.77734375 0 0 Z " fill="#3E4255" transform="translate(361,268)"/>
<path d="M0 0 C5.75 0.875 5.75 0.875 8 2 C8 2.99 8 3.98 8 5 C5.69 4.67 3.38 4.34 1 4 C0.67 2.68 0.34 1.36 0 0 Z " fill="#195ABA" transform="translate(97,250)"/>
<path d="M0 0 C2.35171131 0.59861742 4.6859378 1.26924352 7 2 C7.33 2.66 7.66 3.32 8 4 C7.34 4.66 6.68 5.32 6 6 C5.01 6 4.02 6 3 6 C3 5.01 3 4.02 3 3 C2.01 3 1.02 3 0 3 C0 2.01 0 1.02 0 0 Z " fill="#112C62" transform="translate(352,225)"/>
<path d="M0 0 C0.99 0 1.98 0 3 0 C3 0.99 3 1.98 3 3 C3.66 3.33 4.32 3.66 5 4 C1.04 5.98 1.04 5.98 -3 8 C-2.67 6.68 -2.34 5.36 -2 4 C-1.01 4 -0.02 4 1 4 C0.67 2.68 0.34 1.36 0 0 Z " fill="#444A5D" transform="translate(185,204)"/>
<path d="M0 0 C0.99 0.99 1.98 1.98 3 3 C1.37660195 4.70884005 -0.29319053 6.37446717 -2 8 C-2.66 8 -3.32 8 -4 8 C-3.6875 5.125 -3.6875 5.125 -3 2 C-2.01 1.34 -1.02 0.68 0 0 Z " fill="#162241" transform="translate(328,172)"/>
<path d="M0 0 C0.763125 0.20625 1.52625 0.4125 2.3125 0.625 C-0.54056797 2.94972205 -3.22824837 4.3758258 -6.6875 5.625 C-6.375 3.75 -6.375 3.75 -5.6875 1.625 C-2.6875 -0.375 -2.6875 -0.375 0 0 Z " fill="#454A5B" transform="translate(402.6875,291.375)"/>
<path d="M0 0 C3.37705625 0.53725895 6.696686 1.11064623 10 2 C10 2.66 10 3.32 10 4 C7.8125 4.8125 7.8125 4.8125 5 5 C2.1875 2.5625 2.1875 2.5625 0 0 Z " fill="#4C7EBB" transform="translate(75,279)"/>
<path d="M0 0 C0.33 0.66 0.66 1.32 1 2 C0.00390625 3.9453125 0.00390625 3.9453125 -1.4375 6.125 C-1.91058594 6.84945313 -2.38367188 7.57390625 -2.87109375 8.3203125 C-3.24363281 8.87460937 -3.61617188 9.42890625 -4 10 C-4.66 8.68 -5.32 7.36 -6 6 C-2.25 1.125 -2.25 1.125 0 0 Z " fill="#5C80AE" transform="translate(434,266)"/>
<path d="M0 0 C0.97608217 2.92824652 1.08226668 4.95613276 1 8 C-0.65 8.33 -2.3 8.66 -4 9 C-3.46930939 5.17902761 -2.50298434 2.93828597 0 0 Z " fill="#0B2272" transform="translate(262,262)"/>
<path d="M0 0 C0.66 0.33 1.32 0.66 2 1 C0.90931332 4.77545388 0.0916909 7.47043472 -3 10 C-3 7.69 -3 5.38 -3 3 C-2.01 2.67 -1.02 2.34 0 2 C0 1.34 0 0.68 0 0 Z " fill="#1953A4" transform="translate(68,235)"/>
<path d="M0 0 C4.43458973 1.3937282 6.87378374 3.60582235 10 7 C9.01 7.495 9.01 7.495 8 8 C3.83648025 6.61216008 2.66077051 4.45181039 0 1 C0 0.67 0 0.34 0 0 Z " fill="#6280AD" transform="translate(415,218)"/>
<path d="M0 0 C1.70741418 3.41482836 0.77508783 6.4152188 0 10 C-0.99 9.01 -1.98 8.02 -3 7 C-3.99 7.495 -3.99 7.495 -5 8 C-3.62845496 5.04590299 -2.01136276 2.55991624 0 0 Z " fill="#121C3F" transform="translate(319,195)"/>
<path d="M0 0 C1.8871875 0.061875 1.8871875 0.061875 3.8125 0.125 C0.90677672 2.60024576 -1.34572926 3.82170231 -5.1875 4.125 C-5.8475 3.465 -6.5075 2.805 -7.1875 2.125 C-4.09861478 0.06574319 -3.47814073 -0.1140374 0 0 Z " fill="#70B3D8" transform="translate(236.1875,181.875)"/>
<path d="M0 0 C0.66 0.33 1.32 0.66 2 1 C-2.625 4 -2.625 4 -6 4 C-6.33 4.66 -6.66 5.32 -7 6 C-9.0625 7.125 -9.0625 7.125 -11 8 C-11.66 7.34 -12.32 6.68 -13 6 C-10.87959258 4.96966118 -8.75352092 3.95097146 -6.625 2.9375 C-5.44164062 2.36902344 -4.25828125 1.80054688 -3.0390625 1.21484375 C-2.03617188 0.81394531 -1.03328125 0.41304687 0 0 Z " fill="#88C3D7" transform="translate(232,140)"/>
<path d="M0 0 C0.33 0.66 0.66 1.32 1 2 C1.66 2.33 2.32 2.66 3 3 C2.67 3.66 2.34 4.32 2 5 C-0.375 5.1875 -0.375 5.1875 -3 5 C-3.66 4.01 -4.32 3.02 -5 2 C-3.35 1.34 -1.7 0.68 0 0 Z " fill="#2C83D9" transform="translate(228,361)"/>
<path d="M0 0 C2 1 4 2 6 3 C6 4.65 6 6.3 6 8 C5.01 8.495 5.01 8.495 4 9 C3.34 8.01 2.68 7.02 2 6 C1.67 6 1.34 6 1 6 C0.67 4.02 0.34 2.04 0 0 Z " fill="#030A27" transform="translate(416,269)"/>
<path d="M0 0 C0.86625 0.763125 1.7325 1.52625 2.625 2.3125 C5.53600655 4.75220073 8.52943561 6.42998277 12 8 C9 9 9 9 5.4375 7.9375 C2 6 2 6 0.5625 2.8125 C0.376875 1.884375 0.19125 0.95625 0 0 Z " fill="#2655A4" transform="translate(78,234)"/>
<path d="M0 0 C1.8125 0.1875 1.8125 0.1875 4 1 C5.75 3.5625 5.75 3.5625 7 6 C3.89448334 6 2.64738916 5.4606285 0 4 C0 2.68 0 1.36 0 0 Z " fill="#1451A6" transform="translate(424,229)"/>
<path d="M0 0 C-2.1875 2.5625 -2.1875 2.5625 -5 5 C-7.8125 4.8125 -7.8125 4.8125 -10 4 C-7.39928297 0.98864344 -3.94054294 -1.97027147 0 0 Z " fill="#585C6E" transform="translate(126,197)"/>
<path d="M0 0 C1.32 0 2.64 0 4 0 C3.34 2.64 2.68 5.28 2 8 C1.34 7.67 0.68 7.34 0 7 C-0.6875 4 -0.6875 4 -1 1 C-0.67 0.67 -0.34 0.34 0 0 Z " fill="#315994" transform="translate(282,195)"/>
<path d="M0 0 C-1.62249941 0.83819158 -3.24808497 1.6704116 -4.875 2.5 C-6.23238281 3.19609375 -6.23238281 3.19609375 -7.6171875 3.90625 C-10 5 -10 5 -12 5 C-12 4.34 -12 3.68 -12 3 C-10.5682384 2.30062798 -9.12932968 1.61587282 -7.6875 0.9375 C-6.48673828 0.36322266 -6.48673828 0.36322266 -5.26171875 -0.22265625 C-3 -1 -3 -1 0 0 Z " fill="#37A4E2" transform="translate(260,173)"/>
<path d="M0 0 C1.5625 1.6875 1.5625 1.6875 3 4 C2.6875 6.75 2.6875 6.75 2 9 C1.01 9 0.02 9 -1 9 C-1 8.34 -1 7.68 -1 7 C-1.66 6.67 -2.32 6.34 -3 6 C-2.01 5.67 -1.02 5.34 0 5 C0 3.35 0 1.7 0 0 Z " fill="#2B3558" transform="translate(180,318)"/>
<path d="M0 0 C0.66 0.33 1.32 0.66 2 1 C1.67 4.63 1.34 8.26 1 12 C0.34 11.67 -0.32 11.34 -1 11 C-1.0270043 9.54176788 -1.04639787 8.08339325 -1.0625 6.625 C-1.07410156 5.81289063 -1.08570313 5.00078125 -1.09765625 4.1640625 C-1 2 -1 2 0 0 Z " fill="#2B54A0" transform="translate(248,312)"/>
<path d="M0 0 C0 0.99 0 1.98 0 3 C-1.98 3.33 -3.96 3.66 -6 4 C-6.66 3.01 -7.32 2.02 -8 1 C-5.29120665 -0.35439668 -2.99066732 -0.06501451 0 0 Z " fill="#12306E" transform="translate(148,313)"/>
<path d="M0 0 C2.64 0.33 5.28 0.66 8 1 C8.33 2.32 8.66 3.64 9 5 C5.22454612 3.90931332 2.52956528 3.0916909 0 0 Z " fill="#5F80AC" transform="translate(99,294)"/>
<path d="M0 0 C2.92879371 0.62759865 5.36095629 1.58622659 8 3 C8 3.66 8 4.32 8 5 C6.35 5.33 4.7 5.66 3 6 C2.67 5.01 2.34 4.02 2 3 C1.34 2.67 0.68 2.34 0 2 C0 1.34 0 0.68 0 0 Z " fill="#2064CF" transform="translate(224,240)"/>
<path d="M0 0 C2 3 2 3 2 6 C0.02 6 -1.96 6 -4 6 C-3.6875 4.125 -3.6875 4.125 -3 2 C-2.01 1.34 -1.02 0.68 0 0 Z " fill="#125BB9" transform="translate(76,234)"/>
<path d="M0 0 C2.91517292 1.07401108 4.77810176 1.77810176 7 4 C7.33 4.99 7.66 5.98 8 7 C4.54074837 5.7508258 1.85306797 4.32472205 -1 2 C-0.67 1.34 -0.34 0.68 0 0 Z " fill="#506286" transform="translate(357,230)"/>
<path d="M0 0 C0.66 0.66 1.32 1.32 2 2 C-3.625 3.125 -3.625 3.125 -7 2 C-7 1.34 -7 0.68 -7 0 C-4.29393021 -1.35303489 -2.8671629 -0.7884698 0 0 Z " fill="#415F8D" transform="translate(402,210)"/>
<path d="M0 0 C1.32 0.33 2.64 0.66 4 1 C2.54735962 1.8638129 1.0876837 2.71580454 -0.375 3.5625 C-1.59316406 4.27599609 -1.59316406 4.27599609 -2.8359375 5.00390625 C-3.55007812 5.33261719 -4.26421875 5.66132813 -5 6 C-5.66 5.67 -6.32 5.34 -7 5 C-6.34 4.01 -5.68 3.02 -5 2 C-2.375 1.8125 -2.375 1.8125 0 2 C0 1.34 0 0.68 0 0 Z " fill="#7CB4D4" transform="translate(217,191)"/>
<path d="M0 0 C0 0.66 0 1.32 0 2 C-0.99 2 -1.98 2 -3 2 C-3.33 3.32 -3.66 4.64 -4 6 C-5.65 5.67 -7.3 5.34 -9 5 C-6.45523312 2.20075644 -3.92372883 0 0 0 Z " fill="#595D71" transform="translate(146,185)"/>
<path d="M0 0 C0.66 0 1.32 0 2 0 C2.25 6.625 2.25 6.625 0 10 C-1.36952673 7.26094655 -1.12621361 5.02912668 -1 2 C-0.67 1.34 -0.34 0.68 0 0 Z " fill="#317BB2" transform="translate(290,168)"/>
<path d="M0 0 C2.31 0.33 4.62 0.66 7 1 C4.25 4.875 4.25 4.875 2 6 C1.34 5.34 0.68 4.68 0 4 C0 2.68 0 1.36 0 0 Z " fill="#3863AD" transform="translate(111,297)"/>
<path d="M0 0 C0.66 0.66 1.32 1.32 2 2 C1.34 2 0.68 2 0 2 C-0.226875 2.61875 -0.45375 3.2375 -0.6875 3.875 C-2.37929835 6.61410209 -3.99244161 7.05024472 -7 8 C-6.34 6.35 -5.68 4.7 -5 3 C-3.68 3 -2.36 3 -1 3 C-0.67 2.01 -0.34 1.02 0 0 Z " fill="#080D29" transform="translate(323,290)"/>
<path d="M0 0 C1.65 0 3.3 0 5 0 C5.33 1.32 5.66 2.64 6 4 C5.01 4.33 4.02 4.66 3 5 C2.01 4.34 1.02 3.68 0 3 C0 2.01 0 1.02 0 0 Z " fill="#2B416D" transform="translate(176,291)"/>
<path d="M0 0 C0.66 0 1.32 0 2 0 C1.25 7.625 1.25 7.625 -1 11 C-1.625 8.1875 -1.625 8.1875 -2 5 C-1.34 4.01 -0.68 3.02 0 2 C0 1.34 0 0.68 0 0 Z " fill="#6375A4" transform="translate(259,277)"/>
<path d="M0 0 C0.99 0.33 1.98 0.66 3 1 C2.67 2.98 2.34 4.96 2 7 C1.01 7 0.02 7 -1 7 C-1.04254356 5.00045254 -1.04080783 2.99958364 -1 1 C-0.67 0.67 -0.34 0.34 0 0 Z " fill="#0A1752" transform="translate(266,246)"/>
<path d="M0 0 C0.66 0.33 1.32 0.66 2 1 C1.67 1.66 1.34 2.32 1 3 C0.34 3 -0.32 3 -1 3 C-1 3.66 -1 4.32 -1 5 C0.98 5 2.96 5 5 5 C5 5.33 5 5.66 5 6 C3.02 6 1.04 6 -1 6 C-1.33 6.99 -1.66 7.98 -2 9 C-2.6875 6.1875 -2.6875 6.1875 -3 3 C-1.5625 1.125 -1.5625 1.125 0 0 Z " fill="#5C6DA6" transform="translate(271,241)"/>
<path d="M0 0 C0 0.66 0 1.32 0 2 C-1.32 2 -2.64 2 -4 2 C-4.33 3.32 -4.66 4.64 -5 6 C-5.66 6 -6.32 6 -7 6 C-7.33 4.68 -7.66 3.36 -8 2 C-4.77208445 -0.1519437 -3.71599191 -0.20086443 0 0 Z " fill="#08102C" transform="translate(123,240)"/>
<path d="M0 0 C-3.1254959 2.64465038 -6.08788267 3.84414715 -10 5 C-10 4.34 -10 3.68 -10 3 C-9.34 3 -8.68 3 -8 3 C-8 2.34 -8 1.68 -8 1 C-5.29120665 -0.35439668 -2.99066732 -0.06501451 0 0 Z " fill="#555A6B" transform="translate(152,228)"/>
<path d="M0 0 C0.66 0 1.32 0 2 0 C2 0.66 2 1.32 2 2 C2.99 2.33 3.98 2.66 5 3 C3.35 4.65 1.7 6.3 0 8 C0 5.36 0 2.72 0 0 Z " fill="#1752A6" transform="translate(247,180)"/>
<path d="M0 0 C0.33 0 0.66 0 1 0 C1.125 2.875 1.125 2.875 1 6 C0.34 6.66 -0.32 7.32 -1 8 C-1.66 8 -2.32 8 -3 8 C-3.33 6.35 -3.66 4.7 -4 3 C-3.34 2.67 -2.68 2.34 -2 2 C-1.34 2.33 -0.68 2.66 0 3 C0 2.01 0 1.02 0 0 Z " fill="#1A82C3" transform="translate(292,160)"/>
<path d="M0 0 C0.66 0 1.32 0 2 0 C2 0.66 2 1.32 2 2 C4.31 2.33 6.62 2.66 9 3 C8.67 3.99 8.34 4.98 8 6 C4.54074837 4.7508258 1.85306797 3.32472205 -1 1 C-0.67 0.67 -0.34 0.34 0 0 Z " fill="#607CA5" transform="translate(116,302)"/>
<path d="M0 0 C3.91211733 1.15585285 6.8745041 2.35534962 10 5 C9.01 5.33 8.02 5.66 7 6 C7 5.34 7 4.68 7 4 C5.35 4 3.7 4 2 4 C1.34 2.68 0.68 1.36 0 0 Z " fill="#5C698B" transform="translate(182,293)"/>
<path d="M0 0 C0 0.66 0 1.32 0 2 C-1.98 2.66 -3.96 3.32 -6 4 C-6 2.68 -6 1.36 -6 0 C-3.50907189 -1.24546405 -2.58919267 -0.7767578 0 0 Z " fill="#33374E" transform="translate(352,276)"/>
<path d="M0 0 C3.68802044 1.22934015 4.72356973 2.93859378 7 6 C6.67 6.66 6.34 7.32 6 8 C5.01 7.67 4.02 7.34 3 7 C2.67 6.34 2.34 5.68 2 5 C1.01 4.67 0.02 4.34 -1 4 C-0.67 3.34 -0.34 2.68 0 2 C0 1.34 0 0.68 0 0 Z " fill="#7898C3" transform="translate(425,225)"/>
<path d="M0 0 C1.42944945 2.35438733 2.08661261 3.48032433 1.625 6.25 C1.41875 6.8275 1.2125 7.405 1 8 C0.34 8 -0.32 8 -1 8 C-1.33 8.99 -1.66 9.98 -2 11 C-1.85957123 9.35369672 -1.71250671 7.70795821 -1.5625 6.0625 C-1.48128906 5.14597656 -1.40007812 4.22945312 -1.31640625 3.28515625 C-1 1 -1 1 0 0 Z " fill="#98CBE3" transform="translate(205,212)"/>
<path d="M0 0 C0.66 0.66 1.32 1.32 2 2 C1.34 3.32 0.68 4.64 0 6 C-1.32 5.67 -2.64 5.34 -4 5 C-2.25 1.125 -2.25 1.125 0 0 Z " fill="#070D28" transform="translate(102,209)"/>
<path d="M0 0 C0.66 0.33 1.32 0.66 2 1 C1.67 1.99 1.34 2.98 1 4 C-4.75 5.125 -4.75 5.125 -7 4 C-1.7265625 0.77734375 -1.7265625 0.77734375 0 0 Z " fill="#56596D" transform="translate(157,178)"/>
<path d="M0 0 C3.77545388 1.09068668 6.47043472 1.9083091 9 5 C8.01 5.495 8.01 5.495 7 6 C7 5.34 7 4.68 7 4 C2.89776415 2.98459888 2.89776415 2.98459888 -1 4 C-0.67 2.68 -0.34 1.36 0 0 Z " fill="#394054" transform="translate(327,170)"/>
<path d="M0 0 C0.99 0 1.98 0 3 0 C3.625 1.8125 3.625 1.8125 4 4 C3.01 5.485 3.01 5.485 2 7 C1.34 7 0.68 7 0 7 C0 4.69 0 2.38 0 0 Z " fill="#2292D6" transform="translate(211,153)"/>
<path d="M0 0 C2.31 0 4.62 0 7 0 C1.85714286 4.42857143 1.85714286 4.42857143 -2 5 C-1.34 3.35 -0.68 1.7 0 0 Z " fill="#4E5365" transform="translate(379,302)"/>
<path d="M0 0 C0.89674777 2.51089376 1.13172674 3.64535109 0.1875 6.1875 C-1 8 -1 8 -3 9 C-3.1875 5.625 -3.1875 5.625 -3 2 C-2.01 1.34 -1.02 0.68 0 0 Z " fill="#143486" transform="translate(256,288)"/>
<path d="M0 0 C0.99 0.33 1.98 0.66 3 1 C3 2.32 3 3.64 3 5 C2.34 5 1.68 5 1 5 C1.66 6.32 2.32 7.64 3 9 C2.01 8.67 1.02 8.34 0 8 C0 5.36 0 2.72 0 0 Z " fill="#225CB6" transform="translate(67,261)"/>
<path d="M0 0 C0 0.66 0 1.32 0 2 C-3.3 2 -6.6 2 -10 2 C-9.67 1.34 -9.34 0.68 -9 0 C-5.65506316 -0.99444068 -3.31044803 -1.10348268 0 0 Z " fill="#3B91D7" transform="translate(211,243)"/>
<path d="M0 0 C0.33 0 0.66 0 1 0 C0.67 2.31 0.34 4.62 0 7 C-0.66 7 -1.32 7 -2 7 C-2.33 7.99 -2.66 8.98 -3 10 C-2.25 2.25 -2.25 2.25 0 0 Z " fill="#5A82AA" transform="translate(246,180)"/>
<path d="M0 0 C0.66 0.33 1.32 0.66 2 1 C1.67 2.32 1.34 3.64 1 5 C0.01 4.67 -0.98 4.34 -2 4 C-1.34 2.68 -0.68 1.36 0 0 Z M-5 2 C-4.34 2 -3.68 2 -3 2 C-2.67 3.32 -2.34 4.64 -2 6 C-3.32 5.67 -4.64 5.34 -6 5 C-5.67 4.01 -5.34 3.02 -5 2 Z " fill="#070C27" transform="translate(164,176)"/>
<path d="M0 0 C0.66 0.33 1.32 0.66 2 1 C1.67 1.66 1.34 2.32 1 3 C0.01 3.33 -0.98 3.66 -2 4 C-2.66 4.66 -3.32 5.32 -4 6 C-4 5.34 -4 4.68 -4 4 C-4.99 3.67 -5.98 3.34 -7 3 C-4.69631264 1.93347808 -2.35981813 0.93578995 0 0 Z " fill="#1160A8" transform="translate(253,176)"/>
<path d="M0 0 C0.66 0.33 1.32 0.66 2 1 C1.34 2.65 0.68 4.3 0 6 C-0.66 6 -1.32 6 -2 6 C-2.33 7.32 -2.66 8.64 -3 10 C-2.88637738 8.5199159 -2.75877092 7.04089926 -2.625 5.5625 C-2.55539063 4.73878906 -2.48578125 3.91507813 -2.4140625 3.06640625 C-2.27742187 2.38449219 -2.14078125 1.70257813 -2 1 C-1.34 0.67 -0.68 0.34 0 0 Z " fill="#84BDD6" transform="translate(211,150)"/>
<path d="M0 0 C3.29148243 1.13499394 3.9959869 1.99283376 5.75 5.125 C6.1625 6.07375 6.575 7.0225 7 8 C6.01 8 5.02 8 4 8 C0 2.74285714 0 2.74285714 0 0 Z " fill="#6697C6" transform="translate(207,348)"/>
<path d="M0 0 C-2.88211302 0.96070434 -4.69850044 1.10581883 -7.6875 1.0625 C-8.89986328 1.04896484 -8.89986328 1.04896484 -10.13671875 1.03515625 C-11.05904297 1.01775391 -11.05904297 1.01775391 -12 1 C-4.57203842 -2.77588047 -4.57203842 -2.77588047 0 0 Z " fill="#21489E" transform="translate(276,335)"/>
<path d="M0 0 C2 3 2 3 1.625 6.1875 C1.41875 7.115625 1.2125 8.04375 1 9 C0.67 8.01 0.34 7.02 0 6 C-0.66 6 -1.32 6 -2 6 C-2 5.01 -2 4.02 -2 3 C-1.34 3 -0.68 3 0 3 C0 2.01 0 1.02 0 0 Z " fill="#224294" transform="translate(218,276)"/>
<path d="M0 0 C3.45925163 1.2491742 6.14693203 2.67527795 9 5 C7.02 5 5.04 5 3 5 C3 4.34 3 3.68 3 3 C2.34 3 1.68 3 1 3 C0.67 2.01 0.34 1.02 0 0 Z " fill="#627EA5" transform="translate(141,270)"/>
<path d="M0 0 C2.475 0.99 2.475 0.99 5 2 C3.35 3.65 1.7 5.3 0 7 C-0.66 6.01 -1.32 5.02 -2 4 C-1.01 3.67 -0.02 3.34 1 3 C0.67 2.01 0.34 1.02 0 0 Z " fill="#466DAC" transform="translate(129,263)"/>
<path d="M0 0 C0.99 0.33 1.98 0.66 3 1 C3.73046875 2.84765625 3.73046875 2.84765625 4.1875 5.0625 C4.34605469 5.79597656 4.50460937 6.52945312 4.66796875 7.28515625 C4.83232422 8.13400391 4.83232422 8.13400391 5 9 C4.01 9.495 4.01 9.495 3 10 C2.67 7.69 2.34 5.38 2 3 C1.34 3 0.68 3 0 3 C0 2.01 0 1.02 0 0 Z " fill="#214FA0" transform="translate(420,264)"/>
<path d="M0 0 C-1.485 1.485 -1.485 1.485 -3 3 C-3.99 2.67 -4.98 2.34 -6 2 C-6 1.34 -6 0.68 -6 0 C-3.50907189 -1.24546405 -2.58919267 -0.7767578 0 0 Z M-6 3 C-5.67 3.66 -5.34 4.32 -5 5 C-5.66 4.67 -6.32 4.34 -7 4 C-6.67 3.67 -6.34 3.34 -6 3 Z M-9 5 C-7 6 -7 6 -7 6 Z " fill="#060C27" transform="translate(393,255)"/>
<path d="M0 0 C0 0.66 0 1.32 0 2 C-4.38461538 5 -4.38461538 5 -7 5 C-6.6875 3.0625 -6.6875 3.0625 -6 1 C-3 0 -3 0 0 0 Z " fill="#4F5464" transform="translate(176,214)"/>
<path d="M0 0 C0.99 0.33 1.98 0.66 3 1 C2.67 2.98 2.34 4.96 2 7 C1.01 6.67 0.02 6.34 -1 6 C-1.042721 4.33388095 -1.04063832 2.66617115 -1 1 C-0.67 0.67 -0.34 0.34 0 0 Z " fill="#30649E" transform="translate(285,186)"/>
<path d="M0 0 C1.98 0 3.96 0 6 0 C6.66 1.65 7.32 3.3 8 5 C4.62496331 3.8141763 2.35277269 2.72426311 0 0 Z " fill="#727789" transform="translate(164,330)"/>
<path d="M0 0 C3.465 1.98 3.465 1.98 7 4 C7 4.66 7 5.32 7 6 C4.03 5.505 4.03 5.505 1 5 C0.67 3.35 0.34 1.7 0 0 Z " fill="#225CBD" transform="translate(248,326)"/>
<path d="M0 0 C0.99 0 1.98 0 3 0 C2.67 1.65 2.34 3.3 2 5 C1.01 5.33 0.02 5.66 -1 6 C-0.67 4.02 -0.34 2.04 0 0 Z " fill="#3E5C9F" transform="translate(210,298)"/>
<path d="M0 0 C1.32 0.33 2.64 0.66 4 1 C3.67 2.32 3.34 3.64 3 5 C1.68 5.33 0.36 5.66 -1 6 C-1 5.01 -1 4.02 -1 3 C-0.34 2.67 0.32 2.34 1 2 C0.67 1.34 0.34 0.68 0 0 Z " fill="#1F4D9A" transform="translate(116,297)"/>
<path d="M0 0 C2.0343459 1.41519715 2.90410393 2.54982123 3.421875 4.98046875 C3.66273952 6.98176954 3.83532741 8.9909944 4 11 C2 9 2 9 1.875 6.375 C1.91625 5.59125 1.9575 4.8075 2 4 C1.01 3.67 0.02 3.34 -1 3 C-0.67 2.01 -0.34 1.02 0 0 Z " fill="#011444" transform="translate(420,268)"/>
<path d="M0 0 C0.33 0.66 0.66 1.32 1 2 C1.66 2.33 2.32 2.66 3 3 C2.6875 4.875 2.6875 4.875 2 7 C1.01 7.66 0.02 8.32 -1 9 C-0.67 6.03 -0.34 3.06 0 0 Z " fill="#0A2E92" transform="translate(221,269)"/>
<path d="M0 0 C1.65 0 3.3 0 5 0 C5.33 0.99 5.66 1.98 6 3 C3.69 3 1.38 3 -1 3 C-0.67 2.01 -0.34 1.02 0 0 Z " fill="#1661C5" transform="translate(84,244)"/>
<path d="M0 0 C0.66 0.33 1.32 0.66 2 1 C1.34 2.65 0.68 4.3 0 6 C-0.66 6 -1.32 6 -2 6 C-2.33 4.35 -2.66 2.7 -3 1 C-2.01 0.67 -1.02 0.34 0 0 Z " fill="#233265" transform="translate(307,212)"/>
<path d="M0 0 C3.96 1.98 3.96 1.98 8 4 C6.02 4.99 6.02 4.99 4 6 C3.67 5.34 3.34 4.68 3 4 C2.01 3.67 1.02 3.34 0 3 C0 2.01 0 1.02 0 0 Z " fill="#3B4863" transform="translate(343,178)"/>
<path d="M0 0 C1.98 0.66 3.96 1.32 6 2 C6 2.99 6 3.98 6 5 C4.68 4.67 3.36 4.34 2 4 C2 3.34 2 2.68 2 2 C1.34 2 0.68 2 0 2 C0 1.34 0 0.68 0 0 Z " fill="#5B7198" transform="translate(161,281)"/>
<path d="M0 0 C0 0.33 0 0.66 0 1 C-3.63 1 -7.26 1 -11 1 C-10 -1 -10 -1 -8.3125 -1.75 C-5.17326781 -2.08937645 -2.91097894 -1.12469641 0 0 Z " fill="#283252" transform="translate(398,254)"/>
<path d="M0 0 C0.66 0.33 1.32 0.66 2 1 C1.01 3.97 0.02 6.94 -1 10 C-1.33 10 -1.66 10 -2 10 C-2.17942163 6.05272412 -2.09350689 3.4019487 0 0 Z " fill="#419FDD" transform="translate(202,234)"/>
<path d="M0 0 C0.66 0 1.32 0 2 0 C1.43628586 3.26954202 0.50037734 4.82575883 -2 7 C-2.33 6.34 -2.66 5.68 -3 5 C-1.6875 2.375 -1.6875 2.375 0 0 Z " fill="#5E88B3" transform="translate(68,231)"/>
<path d="M0 0 C0.66 0 1.32 0 2 0 C2.66 1.98 3.32 3.96 4 6 C2.35 6 0.7 6 -1 6 C-0.67 4.02 -0.34 2.04 0 0 Z " fill="#0F2A68" transform="translate(239,205)"/>
<path d="M0 0 C0.66 0.33 1.32 0.66 2 1 C1.67 1.99 1.34 2.98 1 4 C-0.65 4.33 -2.3 4.66 -4 5 C-4.33 4.34 -4.66 3.68 -5 3 C-2.625 1.4375 -2.625 1.4375 0 0 Z " fill="#414759" transform="translate(135,190)"/>
<path d="M0 0 C0.66 0.33 1.32 0.66 2 1 C0.35 2.65 -1.3 4.3 -3 6 C-3.33 5.34 -3.66 4.68 -4 4 C-4.66 3.67 -5.32 3.34 -6 3 C-4.03533587 1.93224776 -2.03144641 0.93446535 0 0 Z " fill="#67697B" transform="translate(165,174)"/>
<path d="" fill="#FFFFFF" transform="translate(0,0)"/>
<path d="" fill="#FFFFFF" transform="translate(0,0)"/>
</svg>
